<mxfile host="app.diagrams.net" modified="2024-05-23T09:45:39.637Z" agent="Mozilla/5.0 (Macintosh; Intel Mac OS X 10_15_7) AppleWebKit/537.36 (KHTML, like Gecko) Chrome/124.0.0.0 Safari/537.36" etag="QAFhhL8xoZVS4RGA9ZZQ" version="24.4.4" type="github">
  <diagram name="第 1 页" id="KPnJN9Ksv_yV2w3EIVoZ">
    <mxGraphModel dx="1026" dy="650" grid="1" gridSize="10" guides="1" tooltips="1" connect="1" arrows="1" fold="1" page="1" pageScale="1" pageWidth="827" pageHeight="1169" math="0" shadow="0">
      <root>
        <mxCell id="0" />
        <mxCell id="1" parent="0" />
        <mxCell id="qt38-HqHiSl6YFuiFpgk-1" value="" style="rounded=0;whiteSpace=wrap;html=1;shadow=1;strokeColor=#808080;" vertex="1" parent="1">
          <mxGeometry x="340" y="487" width="352" height="72" as="geometry" />
        </mxCell>
        <mxCell id="qt38-HqHiSl6YFuiFpgk-2" value="" style="rounded=0;whiteSpace=wrap;html=1;shadow=1;strokeColor=#808080;" vertex="1" parent="1">
          <mxGeometry x="340" y="414.5" width="352" height="68" as="geometry" />
        </mxCell>
        <mxCell id="qt38-HqHiSl6YFuiFpgk-3" value="" style="shape=table;startSize=0;container=1;collapsible=0;childLayout=tableLayout;fontFamily=Times New Roman;labelBackgroundColor=#dae8fc;fillColor=#D5E8D4;strokeColor=#6c8ebf;" vertex="1" parent="1">
          <mxGeometry x="349.5" y="60" width="170" height="30" as="geometry" />
        </mxCell>
        <mxCell id="qt38-HqHiSl6YFuiFpgk-4" value="" style="shape=tableRow;horizontal=0;startSize=0;swimlaneHead=0;swimlaneBody=0;strokeColor=inherit;top=0;left=0;bottom=0;right=0;collapsible=0;dropTarget=0;fillColor=#D5E8D4;points=[[0,0.5],[1,0.5]];portConstraint=eastwest;" vertex="1" parent="qt38-HqHiSl6YFuiFpgk-3">
          <mxGeometry width="170" height="30" as="geometry" />
        </mxCell>
        <mxCell id="qt38-HqHiSl6YFuiFpgk-5" value="B&lt;sub&gt;00&lt;/sub&gt;" style="shape=partialRectangle;html=1;whiteSpace=wrap;connectable=0;strokeColor=#6C8EBF;overflow=hidden;fillColor=#D5E8D4;top=1;left=1;bottom=1;right=1;pointerEvents=1;perimeterSpacing=1;" vertex="1" parent="qt38-HqHiSl6YFuiFpgk-4">
          <mxGeometry width="45" height="30" as="geometry">
            <mxRectangle width="45" height="30" as="alternateBounds" />
          </mxGeometry>
        </mxCell>
        <mxCell id="qt38-HqHiSl6YFuiFpgk-6" value="B&lt;sub&gt;01&lt;/sub&gt;" style="shape=partialRectangle;html=1;whiteSpace=wrap;connectable=0;strokeColor=#6C8EBF;overflow=hidden;fillColor=#D5E8D4;top=1;left=1;bottom=1;right=1;pointerEvents=1;perimeterSpacing=1;" vertex="1" parent="qt38-HqHiSl6YFuiFpgk-4">
          <mxGeometry x="45" width="41" height="30" as="geometry">
            <mxRectangle width="41" height="30" as="alternateBounds" />
          </mxGeometry>
        </mxCell>
        <mxCell id="qt38-HqHiSl6YFuiFpgk-7" value="B&lt;sub&gt;02&lt;/sub&gt;" style="shape=partialRectangle;html=1;whiteSpace=wrap;connectable=0;strokeColor=inherit;overflow=hidden;fillColor=#D5E8D4;top=1;left=1;bottom=1;right=1;pointerEvents=1;" vertex="1" parent="qt38-HqHiSl6YFuiFpgk-4">
          <mxGeometry x="86" width="43" height="30" as="geometry">
            <mxRectangle width="43" height="30" as="alternateBounds" />
          </mxGeometry>
        </mxCell>
        <mxCell id="qt38-HqHiSl6YFuiFpgk-8" value="B&lt;sub&gt;03&lt;/sub&gt;" style="shape=partialRectangle;html=1;whiteSpace=wrap;connectable=0;strokeColor=inherit;overflow=hidden;fillColor=#D5E8D4;top=1;left=1;bottom=1;right=1;pointerEvents=1;" vertex="1" parent="qt38-HqHiSl6YFuiFpgk-4">
          <mxGeometry x="129" width="41" height="30" as="geometry">
            <mxRectangle width="41" height="30" as="alternateBounds" />
          </mxGeometry>
        </mxCell>
        <mxCell id="qt38-HqHiSl6YFuiFpgk-9" value="" style="shape=table;startSize=0;container=1;collapsible=0;childLayout=tableLayout;fontFamily=Times New Roman;labelBackgroundColor=#dae8fc;fillColor=#B9E0A5;strokeColor=#6c8ebf;" vertex="1" parent="1">
          <mxGeometry x="349.5" y="90" width="170" height="30" as="geometry" />
        </mxCell>
        <mxCell id="qt38-HqHiSl6YFuiFpgk-10" value="" style="shape=tableRow;horizontal=0;startSize=0;swimlaneHead=0;swimlaneBody=0;strokeColor=inherit;top=0;left=0;bottom=0;right=0;collapsible=0;dropTarget=0;fillColor=#B9E0A5;points=[[0,0.5],[1,0.5]];portConstraint=eastwest;" vertex="1" parent="qt38-HqHiSl6YFuiFpgk-9">
          <mxGeometry width="170" height="30" as="geometry" />
        </mxCell>
        <mxCell id="qt38-HqHiSl6YFuiFpgk-11" value="B&lt;sub&gt;10&lt;/sub&gt;" style="shape=partialRectangle;html=1;whiteSpace=wrap;connectable=0;strokeColor=#6C8EBF;overflow=hidden;fillColor=#B9E0A5;top=1;left=1;bottom=1;right=1;pointerEvents=1;perimeterSpacing=1;" vertex="1" parent="qt38-HqHiSl6YFuiFpgk-10">
          <mxGeometry width="45" height="30" as="geometry">
            <mxRectangle width="45" height="30" as="alternateBounds" />
          </mxGeometry>
        </mxCell>
        <mxCell id="qt38-HqHiSl6YFuiFpgk-12" value="B&lt;sub&gt;11&lt;/sub&gt;" style="shape=partialRectangle;html=1;whiteSpace=wrap;connectable=0;strokeColor=#6C8EBF;overflow=hidden;fillColor=#B9E0A5;top=1;left=1;bottom=1;right=1;pointerEvents=1;perimeterSpacing=1;" vertex="1" parent="qt38-HqHiSl6YFuiFpgk-10">
          <mxGeometry x="45" width="41" height="30" as="geometry">
            <mxRectangle width="41" height="30" as="alternateBounds" />
          </mxGeometry>
        </mxCell>
        <mxCell id="qt38-HqHiSl6YFuiFpgk-13" value="B&lt;sub&gt;12&lt;/sub&gt;" style="shape=partialRectangle;html=1;whiteSpace=wrap;connectable=0;strokeColor=inherit;overflow=hidden;fillColor=#B9E0A5;top=1;left=1;bottom=1;right=1;pointerEvents=1;" vertex="1" parent="qt38-HqHiSl6YFuiFpgk-10">
          <mxGeometry x="86" width="43" height="30" as="geometry">
            <mxRectangle width="43" height="30" as="alternateBounds" />
          </mxGeometry>
        </mxCell>
        <mxCell id="qt38-HqHiSl6YFuiFpgk-14" value="B&lt;sub&gt;13&lt;/sub&gt;" style="shape=partialRectangle;html=1;whiteSpace=wrap;connectable=0;strokeColor=inherit;overflow=hidden;fillColor=#B9E0A5;top=1;left=1;bottom=1;right=1;pointerEvents=1;" vertex="1" parent="qt38-HqHiSl6YFuiFpgk-10">
          <mxGeometry x="129" width="41" height="30" as="geometry">
            <mxRectangle width="41" height="30" as="alternateBounds" />
          </mxGeometry>
        </mxCell>
        <mxCell id="qt38-HqHiSl6YFuiFpgk-15" value="" style="shape=table;startSize=0;container=1;collapsible=0;childLayout=tableLayout;fontFamily=Times New Roman;labelBackgroundColor=#dae8fc;fillColor=#D4E1F5;strokeColor=#6c8ebf;" vertex="1" parent="1">
          <mxGeometry x="349.5" y="120" width="170" height="30" as="geometry" />
        </mxCell>
        <mxCell id="qt38-HqHiSl6YFuiFpgk-16" value="" style="shape=tableRow;horizontal=0;startSize=0;swimlaneHead=0;swimlaneBody=0;strokeColor=inherit;top=0;left=0;bottom=0;right=0;collapsible=0;dropTarget=0;fillColor=#D4E1F5;points=[[0,0.5],[1,0.5]];portConstraint=eastwest;" vertex="1" parent="qt38-HqHiSl6YFuiFpgk-15">
          <mxGeometry width="170" height="30" as="geometry" />
        </mxCell>
        <mxCell id="qt38-HqHiSl6YFuiFpgk-17" value="B&lt;sub&gt;20&lt;/sub&gt;" style="shape=partialRectangle;html=1;whiteSpace=wrap;connectable=0;strokeColor=#6C8EBF;overflow=hidden;fillColor=#D4E1F5;top=1;left=1;bottom=1;right=1;pointerEvents=1;perimeterSpacing=1;" vertex="1" parent="qt38-HqHiSl6YFuiFpgk-16">
          <mxGeometry width="45" height="30" as="geometry">
            <mxRectangle width="45" height="30" as="alternateBounds" />
          </mxGeometry>
        </mxCell>
        <mxCell id="qt38-HqHiSl6YFuiFpgk-18" value="B&lt;sub&gt;21&lt;/sub&gt;" style="shape=partialRectangle;html=1;whiteSpace=wrap;connectable=0;strokeColor=#6C8EBF;overflow=hidden;fillColor=#D4E1F5;top=1;left=1;bottom=1;right=1;pointerEvents=1;perimeterSpacing=1;" vertex="1" parent="qt38-HqHiSl6YFuiFpgk-16">
          <mxGeometry x="45" width="41" height="30" as="geometry">
            <mxRectangle width="41" height="30" as="alternateBounds" />
          </mxGeometry>
        </mxCell>
        <mxCell id="qt38-HqHiSl6YFuiFpgk-19" value="B&lt;sub&gt;22&lt;/sub&gt;" style="shape=partialRectangle;html=1;whiteSpace=wrap;connectable=0;strokeColor=inherit;overflow=hidden;fillColor=#D4E1F5;top=1;left=1;bottom=1;right=1;pointerEvents=1;" vertex="1" parent="qt38-HqHiSl6YFuiFpgk-16">
          <mxGeometry x="86" width="43" height="30" as="geometry">
            <mxRectangle width="43" height="30" as="alternateBounds" />
          </mxGeometry>
        </mxCell>
        <mxCell id="qt38-HqHiSl6YFuiFpgk-20" value="B&lt;sub&gt;23&lt;/sub&gt;" style="shape=partialRectangle;html=1;whiteSpace=wrap;connectable=0;strokeColor=inherit;overflow=hidden;fillColor=#D4E1F5;top=1;left=1;bottom=1;right=1;pointerEvents=1;" vertex="1" parent="qt38-HqHiSl6YFuiFpgk-16">
          <mxGeometry x="129" width="41" height="30" as="geometry">
            <mxRectangle width="41" height="30" as="alternateBounds" />
          </mxGeometry>
        </mxCell>
        <mxCell id="qt38-HqHiSl6YFuiFpgk-21" value="" style="shape=table;startSize=0;container=1;collapsible=0;childLayout=tableLayout;fontFamily=Times New Roman;labelBackgroundColor=#dae8fc;fillColor=#A9C4EB;strokeColor=#6c8ebf;" vertex="1" parent="1">
          <mxGeometry x="349.5" y="150" width="170" height="30" as="geometry" />
        </mxCell>
        <mxCell id="qt38-HqHiSl6YFuiFpgk-22" value="" style="shape=tableRow;horizontal=0;startSize=0;swimlaneHead=0;swimlaneBody=0;strokeColor=inherit;top=0;left=0;bottom=0;right=0;collapsible=0;dropTarget=0;fillColor=#A9C4EB;points=[[0,0.5],[1,0.5]];portConstraint=eastwest;" vertex="1" parent="qt38-HqHiSl6YFuiFpgk-21">
          <mxGeometry width="170" height="30" as="geometry" />
        </mxCell>
        <mxCell id="qt38-HqHiSl6YFuiFpgk-23" value="B&lt;sub&gt;30&lt;/sub&gt;" style="shape=partialRectangle;html=1;whiteSpace=wrap;connectable=0;strokeColor=#6C8EBF;overflow=hidden;fillColor=#A9C4EB;top=1;left=1;bottom=1;right=1;pointerEvents=1;perimeterSpacing=1;" vertex="1" parent="qt38-HqHiSl6YFuiFpgk-22">
          <mxGeometry width="45" height="30" as="geometry">
            <mxRectangle width="45" height="30" as="alternateBounds" />
          </mxGeometry>
        </mxCell>
        <mxCell id="qt38-HqHiSl6YFuiFpgk-24" value="B&lt;sub&gt;31&lt;/sub&gt;" style="shape=partialRectangle;html=1;whiteSpace=wrap;connectable=0;strokeColor=#6C8EBF;overflow=hidden;fillColor=#A9C4EB;top=1;left=1;bottom=1;right=1;pointerEvents=1;perimeterSpacing=1;" vertex="1" parent="qt38-HqHiSl6YFuiFpgk-22">
          <mxGeometry x="45" width="41" height="30" as="geometry">
            <mxRectangle width="41" height="30" as="alternateBounds" />
          </mxGeometry>
        </mxCell>
        <mxCell id="qt38-HqHiSl6YFuiFpgk-25" value="B&lt;sub&gt;32&lt;/sub&gt;" style="shape=partialRectangle;html=1;whiteSpace=wrap;connectable=0;strokeColor=inherit;overflow=hidden;fillColor=#A9C4EB;top=1;left=1;bottom=1;right=1;pointerEvents=1;" vertex="1" parent="qt38-HqHiSl6YFuiFpgk-22">
          <mxGeometry x="86" width="43" height="30" as="geometry">
            <mxRectangle width="43" height="30" as="alternateBounds" />
          </mxGeometry>
        </mxCell>
        <mxCell id="qt38-HqHiSl6YFuiFpgk-26" value="B&lt;sub&gt;33&lt;/sub&gt;" style="shape=partialRectangle;html=1;whiteSpace=wrap;connectable=0;strokeColor=inherit;overflow=hidden;fillColor=#A9C4EB;top=1;left=1;bottom=1;right=1;pointerEvents=1;" vertex="1" parent="qt38-HqHiSl6YFuiFpgk-22">
          <mxGeometry x="129" width="41" height="30" as="geometry">
            <mxRectangle width="41" height="30" as="alternateBounds" />
          </mxGeometry>
        </mxCell>
        <mxCell id="qt38-HqHiSl6YFuiFpgk-27" value="" style="shape=table;startSize=0;container=1;collapsible=0;childLayout=tableLayout;fontFamily=Times New Roman;labelBackgroundColor=#dae8fc;fillColor=#FFF2CC;strokeColor=#6c8ebf;" vertex="1" parent="1">
          <mxGeometry x="349.5" y="190" width="170" height="30" as="geometry" />
        </mxCell>
        <mxCell id="qt38-HqHiSl6YFuiFpgk-28" value="" style="shape=tableRow;horizontal=0;startSize=0;swimlaneHead=0;swimlaneBody=0;strokeColor=inherit;top=0;left=0;bottom=0;right=0;collapsible=0;dropTarget=0;fillColor=#FFF2CC;points=[[0,0.5],[1,0.5]];portConstraint=eastwest;" vertex="1" parent="qt38-HqHiSl6YFuiFpgk-27">
          <mxGeometry width="170" height="30" as="geometry" />
        </mxCell>
        <mxCell id="qt38-HqHiSl6YFuiFpgk-29" value="B&lt;sub&gt;40&lt;/sub&gt;" style="shape=partialRectangle;html=1;whiteSpace=wrap;connectable=0;strokeColor=#6C8EBF;overflow=hidden;fillColor=#FFF2CC;top=1;left=1;bottom=1;right=1;pointerEvents=1;perimeterSpacing=1;" vertex="1" parent="qt38-HqHiSl6YFuiFpgk-28">
          <mxGeometry width="45" height="30" as="geometry">
            <mxRectangle width="45" height="30" as="alternateBounds" />
          </mxGeometry>
        </mxCell>
        <mxCell id="qt38-HqHiSl6YFuiFpgk-30" value="B&lt;sub&gt;41&lt;/sub&gt;" style="shape=partialRectangle;html=1;whiteSpace=wrap;connectable=0;strokeColor=#6C8EBF;overflow=hidden;fillColor=#FFF2CC;top=1;left=1;bottom=1;right=1;pointerEvents=1;perimeterSpacing=1;" vertex="1" parent="qt38-HqHiSl6YFuiFpgk-28">
          <mxGeometry x="45" width="41" height="30" as="geometry">
            <mxRectangle width="41" height="30" as="alternateBounds" />
          </mxGeometry>
        </mxCell>
        <mxCell id="qt38-HqHiSl6YFuiFpgk-31" value="B&lt;sub&gt;42&lt;/sub&gt;" style="shape=partialRectangle;html=1;whiteSpace=wrap;connectable=0;strokeColor=inherit;overflow=hidden;fillColor=#FFF2CC;top=1;left=1;bottom=1;right=1;pointerEvents=1;" vertex="1" parent="qt38-HqHiSl6YFuiFpgk-28">
          <mxGeometry x="86" width="43" height="30" as="geometry">
            <mxRectangle width="43" height="30" as="alternateBounds" />
          </mxGeometry>
        </mxCell>
        <mxCell id="qt38-HqHiSl6YFuiFpgk-32" value="B&lt;sub&gt;43&lt;/sub&gt;" style="shape=partialRectangle;html=1;whiteSpace=wrap;connectable=0;strokeColor=inherit;overflow=hidden;fillColor=#FFF2CC;top=1;left=1;bottom=1;right=1;pointerEvents=1;" vertex="1" parent="qt38-HqHiSl6YFuiFpgk-28">
          <mxGeometry x="129" width="41" height="30" as="geometry">
            <mxRectangle width="41" height="30" as="alternateBounds" />
          </mxGeometry>
        </mxCell>
        <mxCell id="qt38-HqHiSl6YFuiFpgk-33" value="" style="shape=table;startSize=0;container=1;collapsible=0;childLayout=tableLayout;fontFamily=Times New Roman;labelBackgroundColor=#dae8fc;fillColor=#FFE599;strokeColor=#6c8ebf;" vertex="1" parent="1">
          <mxGeometry x="349.5" y="220" width="170" height="30" as="geometry" />
        </mxCell>
        <mxCell id="qt38-HqHiSl6YFuiFpgk-34" value="" style="shape=tableRow;horizontal=0;startSize=0;swimlaneHead=0;swimlaneBody=0;strokeColor=inherit;top=0;left=0;bottom=0;right=0;collapsible=0;dropTarget=0;fillColor=#FFE599;points=[[0,0.5],[1,0.5]];portConstraint=eastwest;" vertex="1" parent="qt38-HqHiSl6YFuiFpgk-33">
          <mxGeometry width="170" height="30" as="geometry" />
        </mxCell>
        <mxCell id="qt38-HqHiSl6YFuiFpgk-35" value="B&lt;sub&gt;50&lt;/sub&gt;" style="shape=partialRectangle;html=1;whiteSpace=wrap;connectable=0;strokeColor=#6C8EBF;overflow=hidden;fillColor=#FFE599;top=1;left=1;bottom=1;right=1;pointerEvents=1;perimeterSpacing=1;" vertex="1" parent="qt38-HqHiSl6YFuiFpgk-34">
          <mxGeometry width="45" height="30" as="geometry">
            <mxRectangle width="45" height="30" as="alternateBounds" />
          </mxGeometry>
        </mxCell>
        <mxCell id="qt38-HqHiSl6YFuiFpgk-36" value="B&lt;sub&gt;51&lt;/sub&gt;" style="shape=partialRectangle;html=1;whiteSpace=wrap;connectable=0;strokeColor=#6C8EBF;overflow=hidden;fillColor=#FFE599;top=1;left=1;bottom=1;right=1;pointerEvents=1;perimeterSpacing=1;" vertex="1" parent="qt38-HqHiSl6YFuiFpgk-34">
          <mxGeometry x="45" width="41" height="30" as="geometry">
            <mxRectangle width="41" height="30" as="alternateBounds" />
          </mxGeometry>
        </mxCell>
        <mxCell id="qt38-HqHiSl6YFuiFpgk-37" value="B&lt;sub&gt;52&lt;/sub&gt;" style="shape=partialRectangle;html=1;whiteSpace=wrap;connectable=0;strokeColor=inherit;overflow=hidden;fillColor=#FFE599;top=1;left=1;bottom=1;right=1;pointerEvents=1;" vertex="1" parent="qt38-HqHiSl6YFuiFpgk-34">
          <mxGeometry x="86" width="43" height="30" as="geometry">
            <mxRectangle width="43" height="30" as="alternateBounds" />
          </mxGeometry>
        </mxCell>
        <mxCell id="qt38-HqHiSl6YFuiFpgk-38" value="B&lt;sub&gt;53&lt;/sub&gt;" style="shape=partialRectangle;html=1;whiteSpace=wrap;connectable=0;strokeColor=inherit;overflow=hidden;fillColor=#FFE599;top=1;left=1;bottom=1;right=1;pointerEvents=1;" vertex="1" parent="qt38-HqHiSl6YFuiFpgk-34">
          <mxGeometry x="129" width="41" height="30" as="geometry">
            <mxRectangle width="41" height="30" as="alternateBounds" />
          </mxGeometry>
        </mxCell>
        <mxCell id="qt38-HqHiSl6YFuiFpgk-39" value="" style="shape=table;startSize=0;container=1;collapsible=0;childLayout=tableLayout;fontFamily=Times New Roman;labelBackgroundColor=#dae8fc;fillColor=#FFB366;strokeColor=#6c8ebf;" vertex="1" parent="1">
          <mxGeometry x="349.5" y="250" width="170" height="30" as="geometry" />
        </mxCell>
        <mxCell id="qt38-HqHiSl6YFuiFpgk-40" value="" style="shape=tableRow;horizontal=0;startSize=0;swimlaneHead=0;swimlaneBody=0;strokeColor=inherit;top=0;left=0;bottom=0;right=0;collapsible=0;dropTarget=0;fillColor=#FFB366;points=[[0,0.5],[1,0.5]];portConstraint=eastwest;" vertex="1" parent="qt38-HqHiSl6YFuiFpgk-39">
          <mxGeometry width="170" height="30" as="geometry" />
        </mxCell>
        <mxCell id="qt38-HqHiSl6YFuiFpgk-41" value="B&lt;sub&gt;60&lt;/sub&gt;" style="shape=partialRectangle;html=1;whiteSpace=wrap;connectable=0;strokeColor=#6C8EBF;overflow=hidden;fillColor=#FFB366;top=1;left=1;bottom=1;right=1;pointerEvents=1;perimeterSpacing=1;" vertex="1" parent="qt38-HqHiSl6YFuiFpgk-40">
          <mxGeometry width="45" height="30" as="geometry">
            <mxRectangle width="45" height="30" as="alternateBounds" />
          </mxGeometry>
        </mxCell>
        <mxCell id="qt38-HqHiSl6YFuiFpgk-42" value="B&lt;sub&gt;61&lt;/sub&gt;" style="shape=partialRectangle;html=1;whiteSpace=wrap;connectable=0;strokeColor=#6C8EBF;overflow=hidden;fillColor=#FFB366;top=1;left=1;bottom=1;right=1;pointerEvents=1;perimeterSpacing=1;" vertex="1" parent="qt38-HqHiSl6YFuiFpgk-40">
          <mxGeometry x="45" width="41" height="30" as="geometry">
            <mxRectangle width="41" height="30" as="alternateBounds" />
          </mxGeometry>
        </mxCell>
        <mxCell id="qt38-HqHiSl6YFuiFpgk-43" value="B&lt;sub&gt;62&lt;/sub&gt;" style="shape=partialRectangle;html=1;whiteSpace=wrap;connectable=0;strokeColor=inherit;overflow=hidden;fillColor=#FFB366;top=1;left=1;bottom=1;right=1;pointerEvents=1;" vertex="1" parent="qt38-HqHiSl6YFuiFpgk-40">
          <mxGeometry x="86" width="43" height="30" as="geometry">
            <mxRectangle width="43" height="30" as="alternateBounds" />
          </mxGeometry>
        </mxCell>
        <mxCell id="qt38-HqHiSl6YFuiFpgk-44" value="B&lt;sub&gt;63&lt;/sub&gt;" style="shape=partialRectangle;html=1;whiteSpace=wrap;connectable=0;strokeColor=inherit;overflow=hidden;fillColor=#FFB366;top=1;left=1;bottom=1;right=1;pointerEvents=1;" vertex="1" parent="qt38-HqHiSl6YFuiFpgk-40">
          <mxGeometry x="129" width="41" height="30" as="geometry">
            <mxRectangle width="41" height="30" as="alternateBounds" />
          </mxGeometry>
        </mxCell>
        <mxCell id="qt38-HqHiSl6YFuiFpgk-45" value="" style="shape=table;startSize=0;container=1;collapsible=0;childLayout=tableLayout;fontFamily=Times New Roman;labelBackgroundColor=#dae8fc;fillColor=#FF9933;strokeColor=#6c8ebf;gradientColor=none;" vertex="1" parent="1">
          <mxGeometry x="349.5" y="280" width="170" height="30" as="geometry" />
        </mxCell>
        <mxCell id="qt38-HqHiSl6YFuiFpgk-46" value="" style="shape=tableRow;horizontal=0;startSize=0;swimlaneHead=0;swimlaneBody=0;strokeColor=inherit;top=0;left=0;bottom=0;right=0;collapsible=0;dropTarget=0;fillColor=#FF9933;points=[[0,0.5],[1,0.5]];portConstraint=eastwest;gradientColor=#FF8000;" vertex="1" parent="qt38-HqHiSl6YFuiFpgk-45">
          <mxGeometry width="170" height="30" as="geometry" />
        </mxCell>
        <mxCell id="qt38-HqHiSl6YFuiFpgk-47" value="B&lt;sub&gt;70&lt;/sub&gt;" style="shape=partialRectangle;html=1;whiteSpace=wrap;connectable=0;strokeColor=#6C8EBF;overflow=hidden;fillColor=#FF9933;top=1;left=1;bottom=1;right=1;pointerEvents=1;perimeterSpacing=1;gradientColor=#FF8000;" vertex="1" parent="qt38-HqHiSl6YFuiFpgk-46">
          <mxGeometry width="45" height="30" as="geometry">
            <mxRectangle width="45" height="30" as="alternateBounds" />
          </mxGeometry>
        </mxCell>
        <mxCell id="qt38-HqHiSl6YFuiFpgk-48" value="B&lt;sub&gt;71&lt;/sub&gt;" style="shape=partialRectangle;html=1;whiteSpace=wrap;connectable=0;strokeColor=#6C8EBF;overflow=hidden;fillColor=#FF9933;top=1;left=1;bottom=1;right=1;pointerEvents=1;perimeterSpacing=1;gradientColor=#FF8000;" vertex="1" parent="qt38-HqHiSl6YFuiFpgk-46">
          <mxGeometry x="45" width="41" height="30" as="geometry">
            <mxRectangle width="41" height="30" as="alternateBounds" />
          </mxGeometry>
        </mxCell>
        <mxCell id="qt38-HqHiSl6YFuiFpgk-49" value="B&lt;sub&gt;72&lt;/sub&gt;" style="shape=partialRectangle;html=1;whiteSpace=wrap;connectable=0;strokeColor=inherit;overflow=hidden;fillColor=#FF9933;top=1;left=1;bottom=1;right=1;pointerEvents=1;gradientColor=#FF8000;" vertex="1" parent="qt38-HqHiSl6YFuiFpgk-46">
          <mxGeometry x="86" width="43" height="30" as="geometry">
            <mxRectangle width="43" height="30" as="alternateBounds" />
          </mxGeometry>
        </mxCell>
        <mxCell id="qt38-HqHiSl6YFuiFpgk-50" value="B&lt;sub&gt;73&lt;/sub&gt;" style="shape=partialRectangle;html=1;whiteSpace=wrap;connectable=0;strokeColor=inherit;overflow=hidden;fillColor=#FF9933;top=1;left=1;bottom=1;right=1;pointerEvents=1;gradientColor=#FF8000;" vertex="1" parent="qt38-HqHiSl6YFuiFpgk-46">
          <mxGeometry x="129" width="41" height="30" as="geometry">
            <mxRectangle width="41" height="30" as="alternateBounds" />
          </mxGeometry>
        </mxCell>
        <mxCell id="qt38-HqHiSl6YFuiFpgk-51" value="&lt;font style=&quot;font-size: 16px;&quot;&gt;(a)&lt;/font&gt;" style="text;html=1;align=center;verticalAlign=middle;whiteSpace=wrap;rounded=0;" vertex="1" parent="1">
          <mxGeometry x="490.5" y="312" width="60" height="30" as="geometry" />
        </mxCell>
        <mxCell id="qt38-HqHiSl6YFuiFpgk-52" value="X" style="text;html=1;align=center;verticalAlign=middle;whiteSpace=wrap;rounded=0;" vertex="1" parent="1">
          <mxGeometry x="510.5" y="100" width="50" height="30" as="geometry" />
        </mxCell>
        <mxCell id="qt38-HqHiSl6YFuiFpgk-53" value="X" style="text;html=1;align=center;verticalAlign=middle;whiteSpace=wrap;rounded=0;" vertex="1" parent="1">
          <mxGeometry x="512.5" y="230" width="50" height="30" as="geometry" />
        </mxCell>
        <mxCell id="qt38-HqHiSl6YFuiFpgk-54" value="" style="strokeWidth=2;html=1;shape=mxgraph.flowchart.annotation_1;align=left;pointerEvents=1;" vertex="1" parent="1">
          <mxGeometry x="331.5" y="62" width="10" height="250" as="geometry" />
        </mxCell>
        <mxCell id="qt38-HqHiSl6YFuiFpgk-55" value="" style="strokeWidth=2;html=1;shape=mxgraph.flowchart.annotation_1;align=left;pointerEvents=1;rotation=-180;" vertex="1" parent="1">
          <mxGeometry x="601.5" y="65" width="10" height="243" as="geometry" />
        </mxCell>
        <mxCell id="qt38-HqHiSl6YFuiFpgk-56" value="" style="shape=table;startSize=0;container=1;collapsible=0;childLayout=tableLayout;fontFamily=Times New Roman;labelBackgroundColor=#dae8fc;fillColor=#E6E6E6;strokeColor=#6c8ebf;" vertex="1" parent="1">
          <mxGeometry x="346" y="358" width="170" height="30" as="geometry" />
        </mxCell>
        <mxCell id="qt38-HqHiSl6YFuiFpgk-57" value="" style="shape=tableRow;horizontal=0;startSize=0;swimlaneHead=0;swimlaneBody=0;strokeColor=inherit;top=0;left=0;bottom=0;right=0;collapsible=0;dropTarget=0;fillColor=#E6E6E6;points=[[0,0.5],[1,0.5]];portConstraint=eastwest;" vertex="1" parent="qt38-HqHiSl6YFuiFpgk-56">
          <mxGeometry width="170" height="30" as="geometry" />
        </mxCell>
        <mxCell id="qt38-HqHiSl6YFuiFpgk-58" value="A&lt;sub&gt;0&lt;/sub&gt;" style="shape=partialRectangle;html=1;whiteSpace=wrap;connectable=0;strokeColor=#6C8EBF;overflow=hidden;fillColor=#E6E6E6;top=1;left=1;bottom=1;right=1;pointerEvents=1;perimeterSpacing=1;" vertex="1" parent="qt38-HqHiSl6YFuiFpgk-57">
          <mxGeometry width="45" height="30" as="geometry">
            <mxRectangle width="45" height="30" as="alternateBounds" />
          </mxGeometry>
        </mxCell>
        <mxCell id="qt38-HqHiSl6YFuiFpgk-59" value="A&lt;sub&gt;1&lt;/sub&gt;" style="shape=partialRectangle;html=1;whiteSpace=wrap;connectable=0;strokeColor=#6C8EBF;overflow=hidden;fillColor=#E6E6E6;top=1;left=1;bottom=1;right=1;pointerEvents=1;perimeterSpacing=1;" vertex="1" parent="qt38-HqHiSl6YFuiFpgk-57">
          <mxGeometry x="45" width="41" height="30" as="geometry">
            <mxRectangle width="41" height="30" as="alternateBounds" />
          </mxGeometry>
        </mxCell>
        <mxCell id="qt38-HqHiSl6YFuiFpgk-60" value="A&lt;sub&gt;2&lt;/sub&gt;" style="shape=partialRectangle;html=1;whiteSpace=wrap;connectable=0;strokeColor=inherit;overflow=hidden;fillColor=#E6E6E6;top=1;left=1;bottom=1;right=1;pointerEvents=1;" vertex="1" parent="qt38-HqHiSl6YFuiFpgk-57">
          <mxGeometry x="86" width="43" height="30" as="geometry">
            <mxRectangle width="43" height="30" as="alternateBounds" />
          </mxGeometry>
        </mxCell>
        <mxCell id="qt38-HqHiSl6YFuiFpgk-61" value="A&lt;sub&gt;3&lt;/sub&gt;" style="shape=partialRectangle;html=1;whiteSpace=wrap;connectable=0;strokeColor=inherit;overflow=hidden;fillColor=#E6E6E6;top=1;left=1;bottom=1;right=1;pointerEvents=1;" vertex="1" parent="qt38-HqHiSl6YFuiFpgk-57">
          <mxGeometry x="129" width="41" height="30" as="geometry">
            <mxRectangle width="41" height="30" as="alternateBounds" />
          </mxGeometry>
        </mxCell>
        <mxCell id="qt38-HqHiSl6YFuiFpgk-62" value="" style="shape=table;startSize=0;container=1;collapsible=0;childLayout=tableLayout;fontFamily=Times New Roman;labelBackgroundColor=#dae8fc;fillColor=#E6E6E6;strokeColor=#6c8ebf;" vertex="1" parent="1">
          <mxGeometry x="516" y="358" width="170" height="30" as="geometry" />
        </mxCell>
        <mxCell id="qt38-HqHiSl6YFuiFpgk-63" value="" style="shape=tableRow;horizontal=0;startSize=0;swimlaneHead=0;swimlaneBody=0;strokeColor=inherit;top=0;left=0;bottom=0;right=0;collapsible=0;dropTarget=0;fillColor=#E6E6E6;points=[[0,0.5],[1,0.5]];portConstraint=eastwest;" vertex="1" parent="qt38-HqHiSl6YFuiFpgk-62">
          <mxGeometry width="170" height="30" as="geometry" />
        </mxCell>
        <mxCell id="qt38-HqHiSl6YFuiFpgk-64" value="A&lt;sub&gt;0&lt;/sub&gt;" style="shape=partialRectangle;html=1;whiteSpace=wrap;connectable=0;strokeColor=#6C8EBF;overflow=hidden;fillColor=#E6E6E6;top=1;left=1;bottom=1;right=1;pointerEvents=1;perimeterSpacing=1;" vertex="1" parent="qt38-HqHiSl6YFuiFpgk-63">
          <mxGeometry width="45" height="30" as="geometry">
            <mxRectangle width="45" height="30" as="alternateBounds" />
          </mxGeometry>
        </mxCell>
        <mxCell id="qt38-HqHiSl6YFuiFpgk-65" value="A&lt;sub&gt;1&lt;/sub&gt;" style="shape=partialRectangle;html=1;whiteSpace=wrap;connectable=0;strokeColor=#6C8EBF;overflow=hidden;fillColor=#E6E6E6;top=1;left=1;bottom=1;right=1;pointerEvents=1;perimeterSpacing=1;" vertex="1" parent="qt38-HqHiSl6YFuiFpgk-63">
          <mxGeometry x="45" width="41" height="30" as="geometry">
            <mxRectangle width="41" height="30" as="alternateBounds" />
          </mxGeometry>
        </mxCell>
        <mxCell id="qt38-HqHiSl6YFuiFpgk-66" value="A&lt;sub&gt;2&lt;/sub&gt;" style="shape=partialRectangle;html=1;whiteSpace=wrap;connectable=0;strokeColor=inherit;overflow=hidden;fillColor=#E6E6E6;top=1;left=1;bottom=1;right=1;pointerEvents=1;" vertex="1" parent="qt38-HqHiSl6YFuiFpgk-63">
          <mxGeometry x="86" width="43" height="30" as="geometry">
            <mxRectangle width="43" height="30" as="alternateBounds" />
          </mxGeometry>
        </mxCell>
        <mxCell id="qt38-HqHiSl6YFuiFpgk-67" value="A&lt;sub&gt;3&lt;/sub&gt;" style="shape=partialRectangle;html=1;whiteSpace=wrap;connectable=0;strokeColor=inherit;overflow=hidden;fillColor=#E6E6E6;top=1;left=1;bottom=1;right=1;pointerEvents=1;" vertex="1" parent="qt38-HqHiSl6YFuiFpgk-63">
          <mxGeometry x="129" width="41" height="30" as="geometry">
            <mxRectangle width="41" height="30" as="alternateBounds" />
          </mxGeometry>
        </mxCell>
        <mxCell id="qt38-HqHiSl6YFuiFpgk-68" value="" style="shape=table;startSize=0;container=1;collapsible=0;childLayout=tableLayout;fontFamily=Times New Roman;labelBackgroundColor=#dae8fc;fillColor=#D5E8D4;strokeColor=#6c8ebf;" vertex="1" parent="1">
          <mxGeometry x="346" y="422" width="170" height="30" as="geometry" />
        </mxCell>
        <mxCell id="qt38-HqHiSl6YFuiFpgk-69" value="" style="shape=tableRow;horizontal=0;startSize=0;swimlaneHead=0;swimlaneBody=0;strokeColor=inherit;top=0;left=0;bottom=0;right=0;collapsible=0;dropTarget=0;fillColor=#D5E8D4;points=[[0,0.5],[1,0.5]];portConstraint=eastwest;" vertex="1" parent="qt38-HqHiSl6YFuiFpgk-68">
          <mxGeometry width="170" height="30" as="geometry" />
        </mxCell>
        <mxCell id="qt38-HqHiSl6YFuiFpgk-70" value="B&lt;sub&gt;00&lt;/sub&gt;" style="shape=partialRectangle;html=1;whiteSpace=wrap;connectable=0;strokeColor=#6C8EBF;overflow=hidden;fillColor=#D5E8D4;top=1;left=1;bottom=1;right=1;pointerEvents=1;perimeterSpacing=1;" vertex="1" parent="qt38-HqHiSl6YFuiFpgk-69">
          <mxGeometry width="45" height="30" as="geometry">
            <mxRectangle width="45" height="30" as="alternateBounds" />
          </mxGeometry>
        </mxCell>
        <mxCell id="qt38-HqHiSl6YFuiFpgk-71" value="B&lt;sub&gt;11&lt;/sub&gt;" style="shape=partialRectangle;html=1;whiteSpace=wrap;connectable=0;strokeColor=#6C8EBF;overflow=hidden;fillColor=#B9E0A5;top=1;left=1;bottom=1;right=1;pointerEvents=1;perimeterSpacing=1;" vertex="1" parent="qt38-HqHiSl6YFuiFpgk-69">
          <mxGeometry x="45" width="41" height="30" as="geometry">
            <mxRectangle width="41" height="30" as="alternateBounds" />
          </mxGeometry>
        </mxCell>
        <mxCell id="qt38-HqHiSl6YFuiFpgk-72" value="B&lt;sub&gt;22&lt;/sub&gt;" style="shape=partialRectangle;html=1;whiteSpace=wrap;connectable=0;strokeColor=inherit;overflow=hidden;fillColor=#D3E1F5;top=1;left=1;bottom=1;right=1;pointerEvents=1;" vertex="1" parent="qt38-HqHiSl6YFuiFpgk-69">
          <mxGeometry x="86" width="43" height="30" as="geometry">
            <mxRectangle width="43" height="30" as="alternateBounds" />
          </mxGeometry>
        </mxCell>
        <mxCell id="qt38-HqHiSl6YFuiFpgk-73" value="B&lt;sub&gt;33&lt;/sub&gt;" style="shape=partialRectangle;html=1;whiteSpace=wrap;connectable=0;strokeColor=inherit;overflow=hidden;fillColor=#A9C4EA;top=1;left=1;bottom=1;right=1;pointerEvents=1;" vertex="1" parent="qt38-HqHiSl6YFuiFpgk-69">
          <mxGeometry x="129" width="41" height="30" as="geometry">
            <mxRectangle width="41" height="30" as="alternateBounds" />
          </mxGeometry>
        </mxCell>
        <mxCell id="qt38-HqHiSl6YFuiFpgk-74" value="" style="shape=table;startSize=0;container=1;collapsible=0;childLayout=tableLayout;fontFamily=Times New Roman;labelBackgroundColor=#dae8fc;fillColor=#B9E0A5;strokeColor=#6c8ebf;" vertex="1" parent="1">
          <mxGeometry x="346" y="452" width="170" height="30" as="geometry" />
        </mxCell>
        <mxCell id="qt38-HqHiSl6YFuiFpgk-75" value="" style="shape=tableRow;horizontal=0;startSize=0;swimlaneHead=0;swimlaneBody=0;strokeColor=inherit;top=0;left=0;bottom=0;right=0;collapsible=0;dropTarget=0;fillColor=#B9E0A5;points=[[0,0.5],[1,0.5]];portConstraint=eastwest;" vertex="1" parent="qt38-HqHiSl6YFuiFpgk-74">
          <mxGeometry width="170" height="30" as="geometry" />
        </mxCell>
        <mxCell id="qt38-HqHiSl6YFuiFpgk-76" value="B&lt;sub&gt;01&lt;/sub&gt;" style="shape=partialRectangle;html=1;whiteSpace=wrap;connectable=0;strokeColor=#6C8EBF;overflow=hidden;fillColor=#D5E8D4;top=1;left=1;bottom=1;right=1;pointerEvents=1;perimeterSpacing=1;" vertex="1" parent="qt38-HqHiSl6YFuiFpgk-75">
          <mxGeometry width="45" height="30" as="geometry">
            <mxRectangle width="45" height="30" as="alternateBounds" />
          </mxGeometry>
        </mxCell>
        <mxCell id="qt38-HqHiSl6YFuiFpgk-77" value="B&lt;sub&gt;12&lt;/sub&gt;" style="shape=partialRectangle;html=1;whiteSpace=wrap;connectable=0;strokeColor=#6C8EBF;overflow=hidden;fillColor=#B9E0A5;top=1;left=1;bottom=1;right=1;pointerEvents=1;perimeterSpacing=1;" vertex="1" parent="qt38-HqHiSl6YFuiFpgk-75">
          <mxGeometry x="45" width="41" height="30" as="geometry">
            <mxRectangle width="41" height="30" as="alternateBounds" />
          </mxGeometry>
        </mxCell>
        <mxCell id="qt38-HqHiSl6YFuiFpgk-78" value="B&lt;sub&gt;23&lt;/sub&gt;" style="shape=partialRectangle;html=1;whiteSpace=wrap;connectable=0;strokeColor=inherit;overflow=hidden;fillColor=#D3E1F5;top=1;left=1;bottom=1;right=1;pointerEvents=1;" vertex="1" parent="qt38-HqHiSl6YFuiFpgk-75">
          <mxGeometry x="86" width="43" height="30" as="geometry">
            <mxRectangle width="43" height="30" as="alternateBounds" />
          </mxGeometry>
        </mxCell>
        <mxCell id="qt38-HqHiSl6YFuiFpgk-79" value="B&lt;sub&gt;30&lt;/sub&gt;" style="shape=partialRectangle;html=1;whiteSpace=wrap;connectable=0;strokeColor=inherit;overflow=hidden;fillColor=#A9C4EA;top=1;left=1;bottom=1;right=1;pointerEvents=1;" vertex="1" parent="qt38-HqHiSl6YFuiFpgk-75">
          <mxGeometry x="129" width="41" height="30" as="geometry">
            <mxRectangle width="41" height="30" as="alternateBounds" />
          </mxGeometry>
        </mxCell>
        <mxCell id="qt38-HqHiSl6YFuiFpgk-80" value="" style="shape=table;startSize=0;container=1;collapsible=0;childLayout=tableLayout;fontFamily=Times New Roman;labelBackgroundColor=#dae8fc;fillColor=#D4E1F5;strokeColor=#6c8ebf;" vertex="1" parent="1">
          <mxGeometry x="346" y="489" width="170" height="30" as="geometry" />
        </mxCell>
        <mxCell id="qt38-HqHiSl6YFuiFpgk-81" value="" style="shape=tableRow;horizontal=0;startSize=0;swimlaneHead=0;swimlaneBody=0;strokeColor=inherit;top=0;left=0;bottom=0;right=0;collapsible=0;dropTarget=0;fillColor=#D4E1F5;points=[[0,0.5],[1,0.5]];portConstraint=eastwest;" vertex="1" parent="qt38-HqHiSl6YFuiFpgk-80">
          <mxGeometry width="170" height="30" as="geometry" />
        </mxCell>
        <mxCell id="qt38-HqHiSl6YFuiFpgk-82" value="B&lt;sub&gt;02&lt;/sub&gt;" style="shape=partialRectangle;html=1;whiteSpace=wrap;connectable=0;strokeColor=#6C8EBF;overflow=hidden;fillColor=#D5E8D4;top=1;left=1;bottom=1;right=1;pointerEvents=1;perimeterSpacing=1;" vertex="1" parent="qt38-HqHiSl6YFuiFpgk-81">
          <mxGeometry width="45" height="30" as="geometry">
            <mxRectangle width="45" height="30" as="alternateBounds" />
          </mxGeometry>
        </mxCell>
        <mxCell id="qt38-HqHiSl6YFuiFpgk-83" value="B&lt;sub&gt;13&lt;/sub&gt;" style="shape=partialRectangle;html=1;whiteSpace=wrap;connectable=0;strokeColor=#6C8EBF;overflow=hidden;fillColor=#B9E0A5;top=1;left=1;bottom=1;right=1;pointerEvents=1;perimeterSpacing=1;" vertex="1" parent="qt38-HqHiSl6YFuiFpgk-81">
          <mxGeometry x="45" width="41" height="30" as="geometry">
            <mxRectangle width="41" height="30" as="alternateBounds" />
          </mxGeometry>
        </mxCell>
        <mxCell id="qt38-HqHiSl6YFuiFpgk-84" value="B&lt;sub&gt;20&lt;/sub&gt;" style="shape=partialRectangle;html=1;whiteSpace=wrap;connectable=0;strokeColor=inherit;overflow=hidden;fillColor=#D3E1F5;top=1;left=1;bottom=1;right=1;pointerEvents=1;" vertex="1" parent="qt38-HqHiSl6YFuiFpgk-81">
          <mxGeometry x="86" width="43" height="30" as="geometry">
            <mxRectangle width="43" height="30" as="alternateBounds" />
          </mxGeometry>
        </mxCell>
        <mxCell id="qt38-HqHiSl6YFuiFpgk-85" value="B&lt;sub&gt;31&lt;/sub&gt;" style="shape=partialRectangle;html=1;whiteSpace=wrap;connectable=0;strokeColor=inherit;overflow=hidden;fillColor=#A9C4EA;top=1;left=1;bottom=1;right=1;pointerEvents=1;" vertex="1" parent="qt38-HqHiSl6YFuiFpgk-81">
          <mxGeometry x="129" width="41" height="30" as="geometry">
            <mxRectangle width="41" height="30" as="alternateBounds" />
          </mxGeometry>
        </mxCell>
        <mxCell id="qt38-HqHiSl6YFuiFpgk-86" value="" style="shape=table;startSize=0;container=1;collapsible=0;childLayout=tableLayout;fontFamily=Times New Roman;labelBackgroundColor=#dae8fc;fillColor=#A9C4EB;strokeColor=#6c8ebf;" vertex="1" parent="1">
          <mxGeometry x="346" y="519" width="170" height="30" as="geometry" />
        </mxCell>
        <mxCell id="qt38-HqHiSl6YFuiFpgk-87" value="" style="shape=tableRow;horizontal=0;startSize=0;swimlaneHead=0;swimlaneBody=0;strokeColor=inherit;top=0;left=0;bottom=0;right=0;collapsible=0;dropTarget=0;fillColor=#A9C4EB;points=[[0,0.5],[1,0.5]];portConstraint=eastwest;" vertex="1" parent="qt38-HqHiSl6YFuiFpgk-86">
          <mxGeometry width="170" height="30" as="geometry" />
        </mxCell>
        <mxCell id="qt38-HqHiSl6YFuiFpgk-88" value="B&lt;sub&gt;03&lt;/sub&gt;" style="shape=partialRectangle;html=1;whiteSpace=wrap;connectable=0;strokeColor=#6C8EBF;overflow=hidden;fillColor=#D5E8D4;top=1;left=1;bottom=1;right=1;pointerEvents=1;perimeterSpacing=1;" vertex="1" parent="qt38-HqHiSl6YFuiFpgk-87">
          <mxGeometry width="45" height="30" as="geometry">
            <mxRectangle width="45" height="30" as="alternateBounds" />
          </mxGeometry>
        </mxCell>
        <mxCell id="qt38-HqHiSl6YFuiFpgk-89" value="B&lt;sub&gt;10&lt;/sub&gt;" style="shape=partialRectangle;html=1;whiteSpace=wrap;connectable=0;strokeColor=#6C8EBF;overflow=hidden;fillColor=#B9E0A5;top=1;left=1;bottom=1;right=1;pointerEvents=1;perimeterSpacing=1;" vertex="1" parent="qt38-HqHiSl6YFuiFpgk-87">
          <mxGeometry x="45" width="41" height="30" as="geometry">
            <mxRectangle width="41" height="30" as="alternateBounds" />
          </mxGeometry>
        </mxCell>
        <mxCell id="qt38-HqHiSl6YFuiFpgk-90" value="B&lt;sub&gt;21&lt;/sub&gt;" style="shape=partialRectangle;html=1;whiteSpace=wrap;connectable=0;strokeColor=inherit;overflow=hidden;fillColor=#D3E1F5;top=1;left=1;bottom=1;right=1;pointerEvents=1;" vertex="1" parent="qt38-HqHiSl6YFuiFpgk-87">
          <mxGeometry x="86" width="43" height="30" as="geometry">
            <mxRectangle width="43" height="30" as="alternateBounds" />
          </mxGeometry>
        </mxCell>
        <mxCell id="qt38-HqHiSl6YFuiFpgk-91" value="B&lt;sub&gt;32&lt;/sub&gt;" style="shape=partialRectangle;html=1;whiteSpace=wrap;connectable=0;strokeColor=inherit;overflow=hidden;fillColor=#A9C4EA;top=1;left=1;bottom=1;right=1;pointerEvents=1;" vertex="1" parent="qt38-HqHiSl6YFuiFpgk-87">
          <mxGeometry x="129" width="41" height="30" as="geometry">
            <mxRectangle width="41" height="30" as="alternateBounds" />
          </mxGeometry>
        </mxCell>
        <mxCell id="qt38-HqHiSl6YFuiFpgk-92" value="" style="shape=table;startSize=0;container=1;collapsible=0;childLayout=tableLayout;fontFamily=Times New Roman;labelBackgroundColor=#dae8fc;fillColor=#FFF2CC;strokeColor=#6c8ebf;opacity=0;" vertex="1" parent="1">
          <mxGeometry x="516" y="422" width="170" height="30" as="geometry" />
        </mxCell>
        <mxCell id="qt38-HqHiSl6YFuiFpgk-93" value="" style="shape=tableRow;horizontal=0;startSize=0;swimlaneHead=0;swimlaneBody=0;strokeColor=inherit;top=0;left=0;bottom=0;right=0;collapsible=0;dropTarget=0;fillColor=#FFF2CC;points=[[0,0.5],[1,0.5]];portConstraint=eastwest;" vertex="1" parent="qt38-HqHiSl6YFuiFpgk-92">
          <mxGeometry width="170" height="30" as="geometry" />
        </mxCell>
        <mxCell id="qt38-HqHiSl6YFuiFpgk-94" value="B&lt;sub&gt;40&lt;/sub&gt;" style="shape=partialRectangle;html=1;whiteSpace=wrap;connectable=0;strokeColor=#6C8EBF;overflow=hidden;fillColor=#FFF2CC;top=1;left=1;bottom=1;right=1;pointerEvents=1;perimeterSpacing=1;" vertex="1" parent="qt38-HqHiSl6YFuiFpgk-93">
          <mxGeometry width="45" height="30" as="geometry">
            <mxRectangle width="45" height="30" as="alternateBounds" />
          </mxGeometry>
        </mxCell>
        <mxCell id="qt38-HqHiSl6YFuiFpgk-95" value="B&lt;sub&gt;51&lt;/sub&gt;" style="shape=partialRectangle;html=1;whiteSpace=wrap;connectable=0;strokeColor=#6C8EBF;overflow=hidden;fillColor=#FFE599;top=1;left=1;bottom=1;right=1;pointerEvents=1;perimeterSpacing=1;" vertex="1" parent="qt38-HqHiSl6YFuiFpgk-93">
          <mxGeometry x="45" width="41" height="30" as="geometry">
            <mxRectangle width="41" height="30" as="alternateBounds" />
          </mxGeometry>
        </mxCell>
        <mxCell id="qt38-HqHiSl6YFuiFpgk-96" value="B&lt;sub&gt;62&lt;/sub&gt;" style="shape=partialRectangle;html=1;whiteSpace=wrap;connectable=0;strokeColor=inherit;overflow=hidden;fillColor=#FFB366;top=1;left=1;bottom=1;right=1;pointerEvents=1;" vertex="1" parent="qt38-HqHiSl6YFuiFpgk-93">
          <mxGeometry x="86" width="43" height="30" as="geometry">
            <mxRectangle width="43" height="30" as="alternateBounds" />
          </mxGeometry>
        </mxCell>
        <mxCell id="qt38-HqHiSl6YFuiFpgk-97" value="B&lt;sub&gt;73&lt;/sub&gt;" style="shape=partialRectangle;html=1;whiteSpace=wrap;connectable=0;strokeColor=inherit;overflow=hidden;fillColor=#FF9933;top=1;left=1;bottom=1;right=1;pointerEvents=1;" vertex="1" parent="qt38-HqHiSl6YFuiFpgk-93">
          <mxGeometry x="129" width="41" height="30" as="geometry">
            <mxRectangle width="41" height="30" as="alternateBounds" />
          </mxGeometry>
        </mxCell>
        <mxCell id="qt38-HqHiSl6YFuiFpgk-98" value="" style="shape=table;startSize=0;container=1;collapsible=0;childLayout=tableLayout;fontFamily=Times New Roman;labelBackgroundColor=#dae8fc;fillColor=#FFE599;strokeColor=#6c8ebf;" vertex="1" parent="1">
          <mxGeometry x="516" y="452" width="170" height="30" as="geometry" />
        </mxCell>
        <mxCell id="qt38-HqHiSl6YFuiFpgk-99" value="" style="shape=tableRow;horizontal=0;startSize=0;swimlaneHead=0;swimlaneBody=0;strokeColor=inherit;top=0;left=0;bottom=0;right=0;collapsible=0;dropTarget=0;fillColor=#FFE599;points=[[0,0.5],[1,0.5]];portConstraint=eastwest;" vertex="1" parent="qt38-HqHiSl6YFuiFpgk-98">
          <mxGeometry width="170" height="30" as="geometry" />
        </mxCell>
        <mxCell id="qt38-HqHiSl6YFuiFpgk-100" value="B&lt;sub&gt;41&lt;/sub&gt;" style="shape=partialRectangle;html=1;whiteSpace=wrap;connectable=0;strokeColor=#6C8EBF;overflow=hidden;fillColor=#FFF2CC;top=1;left=1;bottom=1;right=1;pointerEvents=1;perimeterSpacing=1;" vertex="1" parent="qt38-HqHiSl6YFuiFpgk-99">
          <mxGeometry width="45" height="30" as="geometry">
            <mxRectangle width="45" height="30" as="alternateBounds" />
          </mxGeometry>
        </mxCell>
        <mxCell id="qt38-HqHiSl6YFuiFpgk-101" value="B&lt;sub&gt;52&lt;/sub&gt;" style="shape=partialRectangle;html=1;whiteSpace=wrap;connectable=0;strokeColor=#6C8EBF;overflow=hidden;fillColor=#FFE599;top=1;left=1;bottom=1;right=1;pointerEvents=1;perimeterSpacing=1;" vertex="1" parent="qt38-HqHiSl6YFuiFpgk-99">
          <mxGeometry x="45" width="41" height="30" as="geometry">
            <mxRectangle width="41" height="30" as="alternateBounds" />
          </mxGeometry>
        </mxCell>
        <mxCell id="qt38-HqHiSl6YFuiFpgk-102" value="B&lt;sub&gt;63&lt;/sub&gt;" style="shape=partialRectangle;html=1;whiteSpace=wrap;connectable=0;strokeColor=inherit;overflow=hidden;fillColor=#FFB366;top=1;left=1;bottom=1;right=1;pointerEvents=1;" vertex="1" parent="qt38-HqHiSl6YFuiFpgk-99">
          <mxGeometry x="86" width="43" height="30" as="geometry">
            <mxRectangle width="43" height="30" as="alternateBounds" />
          </mxGeometry>
        </mxCell>
        <mxCell id="qt38-HqHiSl6YFuiFpgk-103" value="B&lt;sub&gt;70&lt;/sub&gt;" style="shape=partialRectangle;html=1;whiteSpace=wrap;connectable=0;strokeColor=inherit;overflow=hidden;fillColor=#FF9933;top=1;left=1;bottom=1;right=1;pointerEvents=1;" vertex="1" parent="qt38-HqHiSl6YFuiFpgk-99">
          <mxGeometry x="129" width="41" height="30" as="geometry">
            <mxRectangle width="41" height="30" as="alternateBounds" />
          </mxGeometry>
        </mxCell>
        <mxCell id="qt38-HqHiSl6YFuiFpgk-104" value="" style="shape=table;startSize=0;container=1;collapsible=0;childLayout=tableLayout;fontFamily=Times New Roman;labelBackgroundColor=#dae8fc;fillColor=#FFB366;strokeColor=#6c8ebf;" vertex="1" parent="1">
          <mxGeometry x="516" y="489" width="170" height="30" as="geometry" />
        </mxCell>
        <mxCell id="qt38-HqHiSl6YFuiFpgk-105" value="" style="shape=tableRow;horizontal=0;startSize=0;swimlaneHead=0;swimlaneBody=0;strokeColor=inherit;top=0;left=0;bottom=0;right=0;collapsible=0;dropTarget=0;fillColor=#FFB366;points=[[0,0.5],[1,0.5]];portConstraint=eastwest;" vertex="1" parent="qt38-HqHiSl6YFuiFpgk-104">
          <mxGeometry width="170" height="30" as="geometry" />
        </mxCell>
        <mxCell id="qt38-HqHiSl6YFuiFpgk-106" value="B&lt;sub&gt;42&lt;/sub&gt;" style="shape=partialRectangle;html=1;whiteSpace=wrap;connectable=0;strokeColor=#6C8EBF;overflow=hidden;fillColor=#FFF2CC;top=1;left=1;bottom=1;right=1;pointerEvents=1;perimeterSpacing=1;" vertex="1" parent="qt38-HqHiSl6YFuiFpgk-105">
          <mxGeometry width="45" height="30" as="geometry">
            <mxRectangle width="45" height="30" as="alternateBounds" />
          </mxGeometry>
        </mxCell>
        <mxCell id="qt38-HqHiSl6YFuiFpgk-107" value="B&lt;sub&gt;53&lt;/sub&gt;" style="shape=partialRectangle;html=1;whiteSpace=wrap;connectable=0;strokeColor=#6C8EBF;overflow=hidden;fillColor=#FFE599;top=1;left=1;bottom=1;right=1;pointerEvents=1;perimeterSpacing=1;" vertex="1" parent="qt38-HqHiSl6YFuiFpgk-105">
          <mxGeometry x="45" width="41" height="30" as="geometry">
            <mxRectangle width="41" height="30" as="alternateBounds" />
          </mxGeometry>
        </mxCell>
        <mxCell id="qt38-HqHiSl6YFuiFpgk-108" value="B&lt;sub&gt;60&lt;/sub&gt;" style="shape=partialRectangle;html=1;whiteSpace=wrap;connectable=0;strokeColor=inherit;overflow=hidden;fillColor=#FFB366;top=1;left=1;bottom=1;right=1;pointerEvents=1;" vertex="1" parent="qt38-HqHiSl6YFuiFpgk-105">
          <mxGeometry x="86" width="43" height="30" as="geometry">
            <mxRectangle width="43" height="30" as="alternateBounds" />
          </mxGeometry>
        </mxCell>
        <mxCell id="qt38-HqHiSl6YFuiFpgk-109" value="B&lt;sub&gt;71&lt;/sub&gt;" style="shape=partialRectangle;html=1;whiteSpace=wrap;connectable=0;strokeColor=inherit;overflow=hidden;fillColor=#FF9933;top=1;left=1;bottom=1;right=1;pointerEvents=1;" vertex="1" parent="qt38-HqHiSl6YFuiFpgk-105">
          <mxGeometry x="129" width="41" height="30" as="geometry">
            <mxRectangle width="41" height="30" as="alternateBounds" />
          </mxGeometry>
        </mxCell>
        <mxCell id="qt38-HqHiSl6YFuiFpgk-110" value="" style="shape=table;startSize=0;container=1;collapsible=0;childLayout=tableLayout;fontFamily=Times New Roman;labelBackgroundColor=#dae8fc;fillColor=#FF9933;strokeColor=#6c8ebf;gradientColor=none;" vertex="1" parent="1">
          <mxGeometry x="516" y="519" width="170" height="30" as="geometry" />
        </mxCell>
        <mxCell id="qt38-HqHiSl6YFuiFpgk-111" value="" style="shape=tableRow;horizontal=0;startSize=0;swimlaneHead=0;swimlaneBody=0;strokeColor=inherit;top=0;left=0;bottom=0;right=0;collapsible=0;dropTarget=0;fillColor=#FF9933;points=[[0,0.5],[1,0.5]];portConstraint=eastwest;gradientColor=#FF8000;" vertex="1" parent="qt38-HqHiSl6YFuiFpgk-110">
          <mxGeometry width="170" height="30" as="geometry" />
        </mxCell>
        <mxCell id="qt38-HqHiSl6YFuiFpgk-112" value="B&lt;sub&gt;43&lt;/sub&gt;" style="shape=partialRectangle;html=1;whiteSpace=wrap;connectable=0;strokeColor=#6C8EBF;overflow=hidden;fillColor=#FFF2CC;top=1;left=1;bottom=1;right=1;pointerEvents=1;perimeterSpacing=1;gradientColor=none;" vertex="1" parent="qt38-HqHiSl6YFuiFpgk-111">
          <mxGeometry width="45" height="30" as="geometry">
            <mxRectangle width="45" height="30" as="alternateBounds" />
          </mxGeometry>
        </mxCell>
        <mxCell id="qt38-HqHiSl6YFuiFpgk-113" value="B&lt;sub&gt;50&lt;/sub&gt;" style="shape=partialRectangle;html=1;whiteSpace=wrap;connectable=0;strokeColor=#6C8EBF;overflow=hidden;fillColor=#FFE599;top=1;left=1;bottom=1;right=1;pointerEvents=1;perimeterSpacing=1;gradientColor=none;" vertex="1" parent="qt38-HqHiSl6YFuiFpgk-111">
          <mxGeometry x="45" width="41" height="30" as="geometry">
            <mxRectangle width="41" height="30" as="alternateBounds" />
          </mxGeometry>
        </mxCell>
        <mxCell id="qt38-HqHiSl6YFuiFpgk-114" value="B&lt;sub&gt;61&lt;/sub&gt;" style="shape=partialRectangle;html=1;whiteSpace=wrap;connectable=0;strokeColor=inherit;overflow=hidden;fillColor=#FFB366;top=1;left=1;bottom=1;right=1;pointerEvents=1;gradientColor=none;" vertex="1" parent="qt38-HqHiSl6YFuiFpgk-111">
          <mxGeometry x="86" width="43" height="30" as="geometry">
            <mxRectangle width="43" height="30" as="alternateBounds" />
          </mxGeometry>
        </mxCell>
        <mxCell id="qt38-HqHiSl6YFuiFpgk-115" value="B&lt;sub&gt;72&lt;/sub&gt;" style="shape=partialRectangle;html=1;whiteSpace=wrap;connectable=0;strokeColor=inherit;overflow=hidden;fillColor=#FF9933;top=1;left=1;bottom=1;right=1;pointerEvents=1;gradientColor=none;" vertex="1" parent="qt38-HqHiSl6YFuiFpgk-111">
          <mxGeometry x="129" width="41" height="30" as="geometry">
            <mxRectangle width="41" height="30" as="alternateBounds" />
          </mxGeometry>
        </mxCell>
        <mxCell id="qt38-HqHiSl6YFuiFpgk-116" value="Diagonal Multiply" style="text;html=1;align=center;verticalAlign=middle;whiteSpace=wrap;rounded=0;" vertex="1" parent="1">
          <mxGeometry x="466" y="388" width="100" height="30" as="geometry" />
        </mxCell>
        <mxCell id="qt38-HqHiSl6YFuiFpgk-117" value="" style="shape=curlyBracket;whiteSpace=wrap;html=1;rounded=1;labelPosition=left;verticalLabelPosition=middle;align=right;verticalAlign=middle;rotation=-90;" vertex="1" parent="1">
          <mxGeometry x="426" y="485.5" width="10" height="165" as="geometry" />
        </mxCell>
        <mxCell id="qt38-HqHiSl6YFuiFpgk-118" value="" style="shape=curlyBracket;whiteSpace=wrap;html=1;rounded=1;labelPosition=left;verticalLabelPosition=middle;align=right;verticalAlign=middle;rotation=-90;" vertex="1" parent="1">
          <mxGeometry x="596" y="485.5" width="10" height="165" as="geometry" />
        </mxCell>
        <mxCell id="qt38-HqHiSl6YFuiFpgk-119" value="diag-B0" style="text;html=1;align=center;verticalAlign=middle;whiteSpace=wrap;rounded=0;" vertex="1" parent="1">
          <mxGeometry x="381" y="563" width="100" height="30" as="geometry" />
        </mxCell>
        <mxCell id="qt38-HqHiSl6YFuiFpgk-120" value="diag-B1" style="text;html=1;align=center;verticalAlign=middle;whiteSpace=wrap;rounded=0;" vertex="1" parent="1">
          <mxGeometry x="551" y="564" width="100" height="30" as="geometry" />
        </mxCell>
        <mxCell id="qt38-HqHiSl6YFuiFpgk-121" value="B0" style="text;html=1;align=center;verticalAlign=middle;whiteSpace=wrap;rounded=0;" vertex="1" parent="1">
          <mxGeometry x="290" y="110" width="100" height="30" as="geometry" />
        </mxCell>
        <mxCell id="qt38-HqHiSl6YFuiFpgk-122" value="B1" style="text;html=1;align=center;verticalAlign=middle;whiteSpace=wrap;rounded=0;" vertex="1" parent="1">
          <mxGeometry x="290" y="235" width="100" height="30" as="geometry" />
        </mxCell>
        <mxCell id="qt38-HqHiSl6YFuiFpgk-123" value="" style="shape=table;startSize=0;container=1;collapsible=0;childLayout=tableLayout;fontFamily=Times New Roman;labelBackgroundColor=#dae8fc;fillColor=#E6E6E6;strokeColor=#6c8ebf;" vertex="1" parent="1">
          <mxGeometry x="550.5" y="60" width="45" height="30" as="geometry" />
        </mxCell>
        <mxCell id="qt38-HqHiSl6YFuiFpgk-124" value="" style="shape=tableRow;horizontal=0;startSize=0;swimlaneHead=0;swimlaneBody=0;strokeColor=inherit;top=0;left=0;bottom=0;right=0;collapsible=0;dropTarget=0;fillColor=#E6E6E6;points=[[0,0.5],[1,0.5]];portConstraint=eastwest;" vertex="1" parent="qt38-HqHiSl6YFuiFpgk-123">
          <mxGeometry width="45" height="30" as="geometry" />
        </mxCell>
        <mxCell id="qt38-HqHiSl6YFuiFpgk-125" value="A&lt;sub&gt;0&lt;/sub&gt;" style="shape=partialRectangle;html=1;whiteSpace=wrap;connectable=0;strokeColor=#6C8EBF;overflow=hidden;fillColor=#E6E6E6;top=1;left=1;bottom=1;right=1;pointerEvents=1;perimeterSpacing=1;" vertex="1" parent="qt38-HqHiSl6YFuiFpgk-124">
          <mxGeometry width="45" height="30" as="geometry">
            <mxRectangle width="45" height="30" as="alternateBounds" />
          </mxGeometry>
        </mxCell>
        <mxCell id="qt38-HqHiSl6YFuiFpgk-126" value="" style="shape=table;startSize=0;container=1;collapsible=0;childLayout=tableLayout;fontFamily=Times New Roman;labelBackgroundColor=#dae8fc;fillColor=#E6E6E6;strokeColor=#6c8ebf;" vertex="1" parent="1">
          <mxGeometry x="550.5" y="90" width="45" height="30" as="geometry" />
        </mxCell>
        <mxCell id="qt38-HqHiSl6YFuiFpgk-127" value="" style="shape=tableRow;horizontal=0;startSize=0;swimlaneHead=0;swimlaneBody=0;strokeColor=inherit;top=0;left=0;bottom=0;right=0;collapsible=0;dropTarget=0;fillColor=#E6E6E6;points=[[0,0.5],[1,0.5]];portConstraint=eastwest;" vertex="1" parent="qt38-HqHiSl6YFuiFpgk-126">
          <mxGeometry width="45" height="30" as="geometry" />
        </mxCell>
        <mxCell id="qt38-HqHiSl6YFuiFpgk-128" value="A&lt;sub&gt;1&lt;/sub&gt;" style="shape=partialRectangle;html=1;whiteSpace=wrap;connectable=0;strokeColor=#6C8EBF;overflow=hidden;fillColor=#E6E6E6;top=1;left=1;bottom=1;right=1;pointerEvents=1;perimeterSpacing=1;" vertex="1" parent="qt38-HqHiSl6YFuiFpgk-127">
          <mxGeometry width="45" height="30" as="geometry">
            <mxRectangle width="45" height="30" as="alternateBounds" />
          </mxGeometry>
        </mxCell>
        <mxCell id="qt38-HqHiSl6YFuiFpgk-129" value="" style="shape=table;startSize=0;container=1;collapsible=0;childLayout=tableLayout;fontFamily=Times New Roman;labelBackgroundColor=#dae8fc;fillColor=#E6E6E6;strokeColor=#6c8ebf;" vertex="1" parent="1">
          <mxGeometry x="550.5" y="120" width="45" height="30" as="geometry" />
        </mxCell>
        <mxCell id="qt38-HqHiSl6YFuiFpgk-130" value="" style="shape=tableRow;horizontal=0;startSize=0;swimlaneHead=0;swimlaneBody=0;strokeColor=inherit;top=0;left=0;bottom=0;right=0;collapsible=0;dropTarget=0;fillColor=#E6E6E6;points=[[0,0.5],[1,0.5]];portConstraint=eastwest;" vertex="1" parent="qt38-HqHiSl6YFuiFpgk-129">
          <mxGeometry width="45" height="30" as="geometry" />
        </mxCell>
        <mxCell id="qt38-HqHiSl6YFuiFpgk-131" value="A&lt;sub&gt;2&lt;/sub&gt;" style="shape=partialRectangle;html=1;whiteSpace=wrap;connectable=0;strokeColor=#6C8EBF;overflow=hidden;fillColor=#E6E6E6;top=1;left=1;bottom=1;right=1;pointerEvents=1;perimeterSpacing=1;" vertex="1" parent="qt38-HqHiSl6YFuiFpgk-130">
          <mxGeometry width="45" height="30" as="geometry">
            <mxRectangle width="45" height="30" as="alternateBounds" />
          </mxGeometry>
        </mxCell>
        <mxCell id="qt38-HqHiSl6YFuiFpgk-132" value="" style="shape=table;startSize=0;container=1;collapsible=0;childLayout=tableLayout;fontFamily=Times New Roman;labelBackgroundColor=#dae8fc;fillColor=#E6E6E6;strokeColor=#6c8ebf;" vertex="1" parent="1">
          <mxGeometry x="550.5" y="150" width="45" height="30" as="geometry" />
        </mxCell>
        <mxCell id="qt38-HqHiSl6YFuiFpgk-133" value="" style="shape=tableRow;horizontal=0;startSize=0;swimlaneHead=0;swimlaneBody=0;strokeColor=inherit;top=0;left=0;bottom=0;right=0;collapsible=0;dropTarget=0;fillColor=#E6E6E6;points=[[0,0.5],[1,0.5]];portConstraint=eastwest;" vertex="1" parent="qt38-HqHiSl6YFuiFpgk-132">
          <mxGeometry width="45" height="30" as="geometry" />
        </mxCell>
        <mxCell id="qt38-HqHiSl6YFuiFpgk-134" value="A&lt;sub&gt;3&lt;/sub&gt;" style="shape=partialRectangle;html=1;whiteSpace=wrap;connectable=0;strokeColor=#6C8EBF;overflow=hidden;fillColor=#E6E6E6;top=1;left=1;bottom=1;right=1;pointerEvents=1;perimeterSpacing=1;" vertex="1" parent="qt38-HqHiSl6YFuiFpgk-133">
          <mxGeometry width="45" height="30" as="geometry">
            <mxRectangle width="45" height="30" as="alternateBounds" />
          </mxGeometry>
        </mxCell>
        <mxCell id="qt38-HqHiSl6YFuiFpgk-135" value="" style="shape=table;startSize=0;container=1;collapsible=0;childLayout=tableLayout;fontFamily=Times New Roman;labelBackgroundColor=#dae8fc;fillColor=#E6E6E6;strokeColor=#6c8ebf;" vertex="1" parent="1">
          <mxGeometry x="551.5" y="190" width="45" height="30" as="geometry" />
        </mxCell>
        <mxCell id="qt38-HqHiSl6YFuiFpgk-136" value="" style="shape=tableRow;horizontal=0;startSize=0;swimlaneHead=0;swimlaneBody=0;strokeColor=inherit;top=0;left=0;bottom=0;right=0;collapsible=0;dropTarget=0;fillColor=#E6E6E6;points=[[0,0.5],[1,0.5]];portConstraint=eastwest;" vertex="1" parent="qt38-HqHiSl6YFuiFpgk-135">
          <mxGeometry width="45" height="30" as="geometry" />
        </mxCell>
        <mxCell id="qt38-HqHiSl6YFuiFpgk-137" value="A&lt;sub&gt;0&lt;/sub&gt;" style="shape=partialRectangle;html=1;whiteSpace=wrap;connectable=0;strokeColor=#6C8EBF;overflow=hidden;fillColor=#E6E6E6;top=1;left=1;bottom=1;right=1;pointerEvents=1;perimeterSpacing=1;" vertex="1" parent="qt38-HqHiSl6YFuiFpgk-136">
          <mxGeometry width="45" height="30" as="geometry">
            <mxRectangle width="45" height="30" as="alternateBounds" />
          </mxGeometry>
        </mxCell>
        <mxCell id="qt38-HqHiSl6YFuiFpgk-138" value="" style="shape=table;startSize=0;container=1;collapsible=0;childLayout=tableLayout;fontFamily=Times New Roman;labelBackgroundColor=#dae8fc;fillColor=#E6E6E6;strokeColor=#6c8ebf;" vertex="1" parent="1">
          <mxGeometry x="551.5" y="220" width="45" height="30" as="geometry" />
        </mxCell>
        <mxCell id="qt38-HqHiSl6YFuiFpgk-139" value="" style="shape=tableRow;horizontal=0;startSize=0;swimlaneHead=0;swimlaneBody=0;strokeColor=inherit;top=0;left=0;bottom=0;right=0;collapsible=0;dropTarget=0;fillColor=#E6E6E6;points=[[0,0.5],[1,0.5]];portConstraint=eastwest;" vertex="1" parent="qt38-HqHiSl6YFuiFpgk-138">
          <mxGeometry width="45" height="30" as="geometry" />
        </mxCell>
        <mxCell id="qt38-HqHiSl6YFuiFpgk-140" value="A&lt;sub&gt;1&lt;/sub&gt;" style="shape=partialRectangle;html=1;whiteSpace=wrap;connectable=0;strokeColor=#6C8EBF;overflow=hidden;fillColor=#E6E6E6;top=1;left=1;bottom=1;right=1;pointerEvents=1;perimeterSpacing=1;" vertex="1" parent="qt38-HqHiSl6YFuiFpgk-139">
          <mxGeometry width="45" height="30" as="geometry">
            <mxRectangle width="45" height="30" as="alternateBounds" />
          </mxGeometry>
        </mxCell>
        <mxCell id="qt38-HqHiSl6YFuiFpgk-141" value="" style="shape=table;startSize=0;container=1;collapsible=0;childLayout=tableLayout;fontFamily=Times New Roman;labelBackgroundColor=#dae8fc;fillColor=#E6E6E6;strokeColor=#6c8ebf;" vertex="1" parent="1">
          <mxGeometry x="551.5" y="250" width="45" height="30" as="geometry" />
        </mxCell>
        <mxCell id="qt38-HqHiSl6YFuiFpgk-142" value="" style="shape=tableRow;horizontal=0;startSize=0;swimlaneHead=0;swimlaneBody=0;strokeColor=inherit;top=0;left=0;bottom=0;right=0;collapsible=0;dropTarget=0;fillColor=#E6E6E6;points=[[0,0.5],[1,0.5]];portConstraint=eastwest;" vertex="1" parent="qt38-HqHiSl6YFuiFpgk-141">
          <mxGeometry width="45" height="30" as="geometry" />
        </mxCell>
        <mxCell id="qt38-HqHiSl6YFuiFpgk-143" value="A&lt;sub&gt;2&lt;/sub&gt;" style="shape=partialRectangle;html=1;whiteSpace=wrap;connectable=0;strokeColor=#6C8EBF;overflow=hidden;fillColor=#E6E6E6;top=1;left=1;bottom=1;right=1;pointerEvents=1;perimeterSpacing=1;" vertex="1" parent="qt38-HqHiSl6YFuiFpgk-142">
          <mxGeometry width="45" height="30" as="geometry">
            <mxRectangle width="45" height="30" as="alternateBounds" />
          </mxGeometry>
        </mxCell>
        <mxCell id="qt38-HqHiSl6YFuiFpgk-144" value="" style="shape=table;startSize=0;container=1;collapsible=0;childLayout=tableLayout;fontFamily=Times New Roman;labelBackgroundColor=#dae8fc;fillColor=#E6E6E6;strokeColor=#6c8ebf;" vertex="1" parent="1">
          <mxGeometry x="551.5" y="280" width="45" height="30" as="geometry" />
        </mxCell>
        <mxCell id="qt38-HqHiSl6YFuiFpgk-145" value="" style="shape=tableRow;horizontal=0;startSize=0;swimlaneHead=0;swimlaneBody=0;strokeColor=inherit;top=0;left=0;bottom=0;right=0;collapsible=0;dropTarget=0;fillColor=#E6E6E6;points=[[0,0.5],[1,0.5]];portConstraint=eastwest;" vertex="1" parent="qt38-HqHiSl6YFuiFpgk-144">
          <mxGeometry width="45" height="30" as="geometry" />
        </mxCell>
        <mxCell id="qt38-HqHiSl6YFuiFpgk-146" value="A&lt;sub&gt;3&lt;/sub&gt;" style="shape=partialRectangle;html=1;whiteSpace=wrap;connectable=0;strokeColor=#6C8EBF;overflow=hidden;fillColor=#E6E6E6;top=1;left=1;bottom=1;right=1;pointerEvents=1;perimeterSpacing=1;" vertex="1" parent="qt38-HqHiSl6YFuiFpgk-145">
          <mxGeometry width="45" height="30" as="geometry">
            <mxRectangle width="45" height="30" as="alternateBounds" />
          </mxGeometry>
        </mxCell>
        <mxCell id="qt38-HqHiSl6YFuiFpgk-147" value="" style="shape=table;startSize=0;container=1;collapsible=0;childLayout=tableLayout;fontFamily=Times New Roman;labelBackgroundColor=#dae8fc;fillColor=#D5E8D4;strokeColor=#6c8ebf;" vertex="1" parent="1">
          <mxGeometry x="636" y="62" width="45" height="30" as="geometry" />
        </mxCell>
        <mxCell id="qt38-HqHiSl6YFuiFpgk-148" value="" style="shape=tableRow;horizontal=0;startSize=0;swimlaneHead=0;swimlaneBody=0;strokeColor=inherit;top=0;left=0;bottom=0;right=0;collapsible=0;dropTarget=0;fillColor=none;points=[[0,0.5],[1,0.5]];portConstraint=eastwest;" vertex="1" parent="qt38-HqHiSl6YFuiFpgk-147">
          <mxGeometry width="45" height="30" as="geometry" />
        </mxCell>
        <mxCell id="qt38-HqHiSl6YFuiFpgk-149" value="C&lt;sub&gt;0&lt;/sub&gt;" style="shape=partialRectangle;html=1;whiteSpace=wrap;connectable=0;strokeColor=#6C8EBF;overflow=hidden;fillColor=#D5E8D4;top=1;left=1;bottom=1;right=1;pointerEvents=1;perimeterSpacing=1;" vertex="1" parent="qt38-HqHiSl6YFuiFpgk-148">
          <mxGeometry width="45" height="30" as="geometry">
            <mxRectangle width="45" height="30" as="alternateBounds" />
          </mxGeometry>
        </mxCell>
        <mxCell id="qt38-HqHiSl6YFuiFpgk-150" value="" style="shape=table;startSize=0;container=1;collapsible=0;childLayout=tableLayout;fontFamily=Times New Roman;labelBackgroundColor=#dae8fc;fillColor=#DAE8FC;strokeColor=#6c8ebf;" vertex="1" parent="1">
          <mxGeometry x="636" y="92" width="45" height="30" as="geometry" />
        </mxCell>
        <mxCell id="qt38-HqHiSl6YFuiFpgk-151" value="" style="shape=tableRow;horizontal=0;startSize=0;swimlaneHead=0;swimlaneBody=0;strokeColor=inherit;top=0;left=0;bottom=0;right=0;collapsible=0;dropTarget=0;fillColor=none;points=[[0,0.5],[1,0.5]];portConstraint=eastwest;" vertex="1" parent="qt38-HqHiSl6YFuiFpgk-150">
          <mxGeometry width="45" height="30" as="geometry" />
        </mxCell>
        <mxCell id="qt38-HqHiSl6YFuiFpgk-152" value="C&lt;sub&gt;1&lt;/sub&gt;" style="shape=partialRectangle;html=1;whiteSpace=wrap;connectable=0;strokeColor=#6C8EBF;overflow=hidden;fillColor=#B9E0A5;top=1;left=1;bottom=1;right=1;pointerEvents=1;perimeterSpacing=1;" vertex="1" parent="qt38-HqHiSl6YFuiFpgk-151">
          <mxGeometry width="45" height="30" as="geometry">
            <mxRectangle width="45" height="30" as="alternateBounds" />
          </mxGeometry>
        </mxCell>
        <mxCell id="qt38-HqHiSl6YFuiFpgk-153" value="" style="shape=table;startSize=0;container=1;collapsible=0;childLayout=tableLayout;fontFamily=Times New Roman;labelBackgroundColor=#dae8fc;fillColor=#DAE8FC;strokeColor=#6c8ebf;" vertex="1" parent="1">
          <mxGeometry x="636" y="122" width="45" height="30" as="geometry" />
        </mxCell>
        <mxCell id="qt38-HqHiSl6YFuiFpgk-154" value="" style="shape=tableRow;horizontal=0;startSize=0;swimlaneHead=0;swimlaneBody=0;strokeColor=inherit;top=0;left=0;bottom=0;right=0;collapsible=0;dropTarget=0;fillColor=none;points=[[0,0.5],[1,0.5]];portConstraint=eastwest;" vertex="1" parent="qt38-HqHiSl6YFuiFpgk-153">
          <mxGeometry width="45" height="30" as="geometry" />
        </mxCell>
        <mxCell id="qt38-HqHiSl6YFuiFpgk-155" value="C&lt;sub&gt;2&lt;/sub&gt;" style="shape=partialRectangle;html=1;whiteSpace=wrap;connectable=0;strokeColor=#6C8EBF;overflow=hidden;fillColor=#DAE8FC;top=1;left=1;bottom=1;right=1;pointerEvents=1;perimeterSpacing=1;" vertex="1" parent="qt38-HqHiSl6YFuiFpgk-154">
          <mxGeometry width="45" height="30" as="geometry">
            <mxRectangle width="45" height="30" as="alternateBounds" />
          </mxGeometry>
        </mxCell>
        <mxCell id="qt38-HqHiSl6YFuiFpgk-156" value="" style="shape=table;startSize=0;container=1;collapsible=0;childLayout=tableLayout;fontFamily=Times New Roman;labelBackgroundColor=#dae8fc;fillColor=#DAE8FC;strokeColor=#6c8ebf;" vertex="1" parent="1">
          <mxGeometry x="636" y="152" width="45" height="30" as="geometry" />
        </mxCell>
        <mxCell id="qt38-HqHiSl6YFuiFpgk-157" value="" style="shape=tableRow;horizontal=0;startSize=0;swimlaneHead=0;swimlaneBody=0;strokeColor=inherit;top=0;left=0;bottom=0;right=0;collapsible=0;dropTarget=0;fillColor=none;points=[[0,0.5],[1,0.5]];portConstraint=eastwest;" vertex="1" parent="qt38-HqHiSl6YFuiFpgk-156">
          <mxGeometry width="45" height="30" as="geometry" />
        </mxCell>
        <mxCell id="qt38-HqHiSl6YFuiFpgk-158" value="C&lt;sub&gt;3&lt;/sub&gt;" style="shape=partialRectangle;html=1;whiteSpace=wrap;connectable=0;strokeColor=#6C8EBF;overflow=hidden;fillColor=#A9C4EB;top=1;left=1;bottom=1;right=1;pointerEvents=1;perimeterSpacing=1;" vertex="1" parent="qt38-HqHiSl6YFuiFpgk-157">
          <mxGeometry width="45" height="30" as="geometry">
            <mxRectangle width="45" height="30" as="alternateBounds" />
          </mxGeometry>
        </mxCell>
        <mxCell id="qt38-HqHiSl6YFuiFpgk-159" value="" style="shape=table;startSize=0;container=1;collapsible=0;childLayout=tableLayout;fontFamily=Times New Roman;labelBackgroundColor=#dae8fc;fillColor=#DAE8FC;strokeColor=#6c8ebf;" vertex="1" parent="1">
          <mxGeometry x="636" y="182" width="45" height="30" as="geometry" />
        </mxCell>
        <mxCell id="qt38-HqHiSl6YFuiFpgk-160" value="" style="shape=tableRow;horizontal=0;startSize=0;swimlaneHead=0;swimlaneBody=0;strokeColor=inherit;top=0;left=0;bottom=0;right=0;collapsible=0;dropTarget=0;fillColor=none;points=[[0,0.5],[1,0.5]];portConstraint=eastwest;" vertex="1" parent="qt38-HqHiSl6YFuiFpgk-159">
          <mxGeometry width="45" height="30" as="geometry" />
        </mxCell>
        <mxCell id="qt38-HqHiSl6YFuiFpgk-161" value="C&lt;sub&gt;4&lt;/sub&gt;" style="shape=partialRectangle;html=1;whiteSpace=wrap;connectable=0;strokeColor=#6C8EBF;overflow=hidden;fillColor=#FFF2CC;top=1;left=1;bottom=1;right=1;pointerEvents=1;perimeterSpacing=1;" vertex="1" parent="qt38-HqHiSl6YFuiFpgk-160">
          <mxGeometry width="45" height="30" as="geometry">
            <mxRectangle width="45" height="30" as="alternateBounds" />
          </mxGeometry>
        </mxCell>
        <mxCell id="qt38-HqHiSl6YFuiFpgk-162" value="" style="shape=table;startSize=0;container=1;collapsible=0;childLayout=tableLayout;fontFamily=Times New Roman;labelBackgroundColor=#dae8fc;fillColor=#DAE8FC;strokeColor=#6c8ebf;" vertex="1" parent="1">
          <mxGeometry x="636" y="212" width="45" height="60" as="geometry" />
        </mxCell>
        <mxCell id="qt38-HqHiSl6YFuiFpgk-163" value="" style="shape=tableRow;horizontal=0;startSize=0;swimlaneHead=0;swimlaneBody=0;strokeColor=inherit;top=0;left=0;bottom=0;right=0;collapsible=0;dropTarget=0;fillColor=none;points=[[0,0.5],[1,0.5]];portConstraint=eastwest;" vertex="1" parent="qt38-HqHiSl6YFuiFpgk-162">
          <mxGeometry width="45" height="30" as="geometry" />
        </mxCell>
        <mxCell id="qt38-HqHiSl6YFuiFpgk-164" value="C&lt;sub&gt;5&lt;/sub&gt;" style="shape=partialRectangle;html=1;whiteSpace=wrap;connectable=0;strokeColor=#6C8EBF;overflow=hidden;fillColor=#FFE599;top=1;left=1;bottom=1;right=1;pointerEvents=1;perimeterSpacing=1;" vertex="1" parent="qt38-HqHiSl6YFuiFpgk-163">
          <mxGeometry width="45" height="30" as="geometry">
            <mxRectangle width="45" height="30" as="alternateBounds" />
          </mxGeometry>
        </mxCell>
        <mxCell id="qt38-HqHiSl6YFuiFpgk-165" value="" style="shape=tableRow;horizontal=0;startSize=0;swimlaneHead=0;swimlaneBody=0;strokeColor=inherit;top=0;left=0;bottom=0;right=0;collapsible=0;dropTarget=0;fillColor=none;points=[[0,0.5],[1,0.5]];portConstraint=eastwest;" vertex="1" parent="qt38-HqHiSl6YFuiFpgk-162">
          <mxGeometry y="30" width="45" height="30" as="geometry" />
        </mxCell>
        <mxCell id="qt38-HqHiSl6YFuiFpgk-166" value="C&lt;sub&gt;5&lt;/sub&gt;" style="shape=partialRectangle;html=1;whiteSpace=wrap;connectable=0;strokeColor=#6C8EBF;overflow=hidden;fillColor=#DAE8FC;top=1;left=1;bottom=1;right=1;pointerEvents=1;perimeterSpacing=1;" vertex="1" parent="qt38-HqHiSl6YFuiFpgk-165">
          <mxGeometry width="45" height="30" as="geometry">
            <mxRectangle width="45" height="30" as="alternateBounds" />
          </mxGeometry>
        </mxCell>
        <mxCell id="qt38-HqHiSl6YFuiFpgk-167" value="" style="shape=table;startSize=0;container=1;collapsible=0;childLayout=tableLayout;fontFamily=Times New Roman;labelBackgroundColor=#dae8fc;fillColor=#DAE8FC;strokeColor=#6c8ebf;" vertex="1" parent="1">
          <mxGeometry x="636" y="242" width="45" height="30" as="geometry" />
        </mxCell>
        <mxCell id="qt38-HqHiSl6YFuiFpgk-168" value="" style="shape=tableRow;horizontal=0;startSize=0;swimlaneHead=0;swimlaneBody=0;strokeColor=inherit;top=0;left=0;bottom=0;right=0;collapsible=0;dropTarget=0;fillColor=none;points=[[0,0.5],[1,0.5]];portConstraint=eastwest;" vertex="1" parent="qt38-HqHiSl6YFuiFpgk-167">
          <mxGeometry width="45" height="30" as="geometry" />
        </mxCell>
        <mxCell id="qt38-HqHiSl6YFuiFpgk-169" value="C&lt;span style=&quot;font-size: 10px;&quot;&gt;6&lt;/span&gt;" style="shape=partialRectangle;html=1;whiteSpace=wrap;connectable=0;strokeColor=#6C8EBF;overflow=hidden;fillColor=#FFB366;top=1;left=1;bottom=1;right=1;pointerEvents=1;perimeterSpacing=1;" vertex="1" parent="qt38-HqHiSl6YFuiFpgk-168">
          <mxGeometry width="45" height="30" as="geometry">
            <mxRectangle width="45" height="30" as="alternateBounds" />
          </mxGeometry>
        </mxCell>
        <mxCell id="qt38-HqHiSl6YFuiFpgk-170" value="" style="shape=table;startSize=0;container=1;collapsible=0;childLayout=tableLayout;fontFamily=Times New Roman;labelBackgroundColor=#dae8fc;fillColor=#DAE8FC;strokeColor=#6c8ebf;" vertex="1" parent="1">
          <mxGeometry x="636" y="272" width="45" height="30" as="geometry" />
        </mxCell>
        <mxCell id="qt38-HqHiSl6YFuiFpgk-171" value="" style="shape=tableRow;horizontal=0;startSize=0;swimlaneHead=0;swimlaneBody=0;strokeColor=inherit;top=0;left=0;bottom=0;right=0;collapsible=0;dropTarget=0;fillColor=none;points=[[0,0.5],[1,0.5]];portConstraint=eastwest;" vertex="1" parent="qt38-HqHiSl6YFuiFpgk-170">
          <mxGeometry width="45" height="30" as="geometry" />
        </mxCell>
        <mxCell id="qt38-HqHiSl6YFuiFpgk-172" value="C&lt;sub&gt;7&lt;/sub&gt;" style="shape=partialRectangle;html=1;whiteSpace=wrap;connectable=0;strokeColor=#6C8EBF;overflow=hidden;fillColor=#FF9933;top=1;left=1;bottom=1;right=1;pointerEvents=1;perimeterSpacing=1;" vertex="1" parent="qt38-HqHiSl6YFuiFpgk-171">
          <mxGeometry width="45" height="30" as="geometry">
            <mxRectangle width="45" height="30" as="alternateBounds" />
          </mxGeometry>
        </mxCell>
        <mxCell id="qt38-HqHiSl6YFuiFpgk-173" value="&lt;span style=&quot;font-size: 18px;&quot;&gt;=&lt;/span&gt;" style="text;html=1;align=center;verticalAlign=middle;whiteSpace=wrap;rounded=0;" vertex="1" parent="1">
          <mxGeometry x="596.5" y="170" width="50" height="30" as="geometry" />
        </mxCell>
        <mxCell id="qt38-HqHiSl6YFuiFpgk-174" value="" style="shape=table;startSize=0;container=1;collapsible=0;childLayout=tableLayout;fontFamily=Times New Roman;labelBackgroundColor=#dae8fc;fillColor=#FFB366;strokeColor=#6c8ebf;" vertex="1" parent="1">
          <mxGeometry x="346" y="598" width="170" height="30" as="geometry" />
        </mxCell>
        <mxCell id="qt38-HqHiSl6YFuiFpgk-175" value="" style="shape=tableRow;horizontal=0;startSize=0;swimlaneHead=0;swimlaneBody=0;strokeColor=inherit;top=0;left=0;bottom=0;right=0;collapsible=0;dropTarget=0;fillColor=#FFB366;points=[[0,0.5],[1,0.5]];portConstraint=eastwest;" vertex="1" parent="qt38-HqHiSl6YFuiFpgk-174">
          <mxGeometry width="170" height="30" as="geometry" />
        </mxCell>
        <mxCell id="qt38-HqHiSl6YFuiFpgk-176" value="&lt;b&gt;C&lt;sub&gt;0&lt;/sub&gt;&lt;/b&gt;" style="shape=partialRectangle;html=1;whiteSpace=wrap;connectable=0;strokeColor=#6C8EBF;overflow=hidden;fillColor=#D5E8D4;top=1;left=1;bottom=1;right=1;pointerEvents=1;perimeterSpacing=1;" vertex="1" parent="qt38-HqHiSl6YFuiFpgk-175">
          <mxGeometry width="45" height="30" as="geometry">
            <mxRectangle width="45" height="30" as="alternateBounds" />
          </mxGeometry>
        </mxCell>
        <mxCell id="qt38-HqHiSl6YFuiFpgk-177" value="&lt;b&gt;C&lt;sub&gt;1&lt;/sub&gt;&lt;/b&gt;" style="shape=partialRectangle;html=1;whiteSpace=wrap;connectable=0;strokeColor=#6C8EBF;overflow=hidden;fillColor=#B9E0A5;top=1;left=1;bottom=1;right=1;pointerEvents=1;perimeterSpacing=1;" vertex="1" parent="qt38-HqHiSl6YFuiFpgk-175">
          <mxGeometry x="45" width="41" height="30" as="geometry">
            <mxRectangle width="41" height="30" as="alternateBounds" />
          </mxGeometry>
        </mxCell>
        <mxCell id="qt38-HqHiSl6YFuiFpgk-178" value="&lt;b&gt;C&lt;sub&gt;2&lt;/sub&gt;&lt;/b&gt;" style="shape=partialRectangle;html=1;whiteSpace=wrap;connectable=0;strokeColor=inherit;overflow=hidden;fillColor=#D4E1F5;top=1;left=1;bottom=1;right=1;pointerEvents=1;" vertex="1" parent="qt38-HqHiSl6YFuiFpgk-175">
          <mxGeometry x="86" width="43" height="30" as="geometry">
            <mxRectangle width="43" height="30" as="alternateBounds" />
          </mxGeometry>
        </mxCell>
        <mxCell id="qt38-HqHiSl6YFuiFpgk-179" value="&lt;b&gt;C&lt;sub&gt;3&lt;/sub&gt;&lt;/b&gt;" style="shape=partialRectangle;html=1;whiteSpace=wrap;connectable=0;strokeColor=inherit;overflow=hidden;fillColor=#A9C4EB;top=1;left=1;bottom=1;right=1;pointerEvents=1;" vertex="1" parent="qt38-HqHiSl6YFuiFpgk-175">
          <mxGeometry x="129" width="41" height="30" as="geometry">
            <mxRectangle width="41" height="30" as="alternateBounds" />
          </mxGeometry>
        </mxCell>
        <mxCell id="qt38-HqHiSl6YFuiFpgk-180" value="" style="shape=table;startSize=0;container=1;collapsible=0;childLayout=tableLayout;fontFamily=Times New Roman;labelBackgroundColor=#dae8fc;fillColor=#FF9933;strokeColor=#6c8ebf;" vertex="1" parent="1">
          <mxGeometry x="516" y="598" width="170" height="30" as="geometry" />
        </mxCell>
        <mxCell id="qt38-HqHiSl6YFuiFpgk-181" value="" style="shape=tableRow;horizontal=0;startSize=0;swimlaneHead=0;swimlaneBody=0;strokeColor=inherit;top=0;left=0;bottom=0;right=0;collapsible=0;dropTarget=0;fillColor=#FF9933;points=[[0,0.5],[1,0.5]];portConstraint=eastwest;" vertex="1" parent="qt38-HqHiSl6YFuiFpgk-180">
          <mxGeometry width="170" height="30" as="geometry" />
        </mxCell>
        <mxCell id="qt38-HqHiSl6YFuiFpgk-182" value="&lt;b&gt;C&lt;sub&gt;4&lt;/sub&gt;&lt;/b&gt;" style="shape=partialRectangle;html=1;whiteSpace=wrap;connectable=0;strokeColor=#6C8EBF;overflow=hidden;fillColor=#FFF2CC;top=1;left=1;bottom=1;right=1;pointerEvents=1;perimeterSpacing=1;" vertex="1" parent="qt38-HqHiSl6YFuiFpgk-181">
          <mxGeometry width="45" height="30" as="geometry">
            <mxRectangle width="45" height="30" as="alternateBounds" />
          </mxGeometry>
        </mxCell>
        <mxCell id="qt38-HqHiSl6YFuiFpgk-183" value="&lt;b&gt;C&lt;sub&gt;5&lt;/sub&gt;&lt;/b&gt;" style="shape=partialRectangle;html=1;whiteSpace=wrap;connectable=0;strokeColor=#6C8EBF;overflow=hidden;fillColor=#FFE599;top=1;left=1;bottom=1;right=1;pointerEvents=1;perimeterSpacing=1;" vertex="1" parent="qt38-HqHiSl6YFuiFpgk-181">
          <mxGeometry x="45" width="41" height="30" as="geometry">
            <mxRectangle width="41" height="30" as="alternateBounds" />
          </mxGeometry>
        </mxCell>
        <mxCell id="qt38-HqHiSl6YFuiFpgk-184" value="&lt;b&gt;C&lt;sub&gt;6&lt;/sub&gt;&lt;/b&gt;" style="shape=partialRectangle;html=1;whiteSpace=wrap;connectable=0;strokeColor=inherit;overflow=hidden;fillColor=#ffb366;top=1;left=1;bottom=1;right=1;pointerEvents=1;" vertex="1" parent="qt38-HqHiSl6YFuiFpgk-181">
          <mxGeometry x="86" width="43" height="30" as="geometry">
            <mxRectangle width="43" height="30" as="alternateBounds" />
          </mxGeometry>
        </mxCell>
        <mxCell id="qt38-HqHiSl6YFuiFpgk-185" value="&lt;b&gt;C&lt;sub&gt;7&lt;/sub&gt;&lt;/b&gt;" style="shape=partialRectangle;html=1;whiteSpace=wrap;connectable=0;strokeColor=inherit;overflow=hidden;fillColor=#FF9933;top=1;left=1;bottom=1;right=1;pointerEvents=1;" vertex="1" parent="qt38-HqHiSl6YFuiFpgk-181">
          <mxGeometry x="129" width="41" height="30" as="geometry">
            <mxRectangle width="41" height="30" as="alternateBounds" />
          </mxGeometry>
        </mxCell>
        <mxCell id="qt38-HqHiSl6YFuiFpgk-186" value="&lt;font style=&quot;font-size: 18px;&quot;&gt;=&lt;/font&gt;" style="text;html=1;align=center;verticalAlign=middle;whiteSpace=wrap;rounded=0;" vertex="1" parent="1">
          <mxGeometry x="491" y="568" width="50" height="30" as="geometry" />
        </mxCell>
        <mxCell id="qt38-HqHiSl6YFuiFpgk-187" value="&lt;font style=&quot;font-size: 16px;&quot;&gt;(b)&lt;/font&gt;" style="text;html=1;align=center;verticalAlign=middle;whiteSpace=wrap;rounded=0;" vertex="1" parent="1">
          <mxGeometry x="486" y="637" width="60" height="30" as="geometry" />
        </mxCell>
        <mxCell id="qt38-HqHiSl6YFuiFpgk-188" value="block0" style="text;html=1;align=center;verticalAlign=middle;whiteSpace=wrap;rounded=0;" vertex="1" parent="1">
          <mxGeometry x="291.5" y="450" width="54.5" height="30" as="geometry" />
        </mxCell>
        <mxCell id="qt38-HqHiSl6YFuiFpgk-189" value="block1" style="text;html=1;align=center;verticalAlign=middle;whiteSpace=wrap;rounded=0;" vertex="1" parent="1">
          <mxGeometry x="293.5" y="512" width="54.5" height="30" as="geometry" />
        </mxCell>
      </root>
    </mxGraphModel>
  </diagram>
</mxfile>
